<svg width="73" height="81" viewBox="0 0 73 81" fill="none" xmlns="http://www.w3.org/2000/svg">
<path fill-rule="evenodd" clip-rule="evenodd" d="M45.2801 33.1654C45.3387 33.3014 45.3973 33.44 45.4373 33.5787C45.5545 33.9707 45.6104 34.4054 45.6104 34.816C45.6147 35.374 45.5088 35.9272 45.299 36.4441C45.0892 36.9611 44.7796 37.4314 44.3878 37.8283C43.9961 38.2252 43.5299 38.5407 43.0161 38.7569C42.5023 38.9731 41.9509 39.0856 41.3936 39.0881C40.3245 39.0805 39.2979 38.6687 38.5193 37.9353C37.7408 37.2019 37.2678 36.2011 37.1953 35.1334C36.9609 35.192 36.6892 35.2907 36.5133 35.3867C36.2222 35.5382 35.954 35.7303 35.7169 35.9574C35.4493 36.231 35.215 36.5353 35.0189 36.8641C34.8032 37.2374 34.63 37.6907 34.5314 38.0641C34.2936 39.0717 34.3276 40.1246 34.63 41.1148C34.8032 41.6854 35.0749 42.2561 35.3679 42.7094C35.6982 43.2588 36.1457 43.7708 36.5933 44.1655C37.0967 44.6188 37.7014 45.0321 38.2822 45.3068C38.9455 45.6215 39.6834 45.8775 40.3626 45.9948C41.1405 46.1335 41.9583 46.1735 42.6962 46.0935C43.5326 46.0135 44.3877 45.8375 45.1256 45.5415C45.9434 45.2268 46.7586 44.7948 47.4378 44.2828C48.997 43.1306 50.2186 41.5807 50.9754 39.7948C51.8128 37.8156 52.1089 35.6489 51.8332 33.5174C51.5279 31.1902 50.6155 28.9846 49.188 27.1226C48.4301 26.1399 47.5481 25.2596 46.5641 24.5039C45.5359 23.7276 44.4124 23.0868 43.2209 22.5973C41.9873 22.0987 40.6928 21.7669 39.3717 21.6106C38.0008 21.4497 36.6143 21.4766 35.2507 21.6906C33.8357 21.9048 32.4559 22.3084 31.1483 22.8906C29.7898 23.5199 28.5058 24.3093 27.379 25.2346C26.1866 26.2124 25.1279 27.343 24.2303 28.5973C23.3031 29.8971 22.5516 31.3138 21.9953 32.8107C21.4197 34.3559 21.0472 35.9694 20.8871 37.6107C20.563 41.0598 21.1452 44.5338 22.576 47.6882C23.3352 49.3415 24.2889 50.8749 25.4157 52.2349C26.5853 53.6538 27.938 54.911 29.4381 55.9736C30.9714 57.0662 32.6453 57.9462 34.4142 58.5896C38.1059 59.9476 42.0943 60.2874 45.9621 59.5736C47.9598 59.208 49.9007 58.5803 51.7346 57.7069C53.6132 56.7968 55.3649 55.6448 56.9452 54.2802C58.5658 52.8785 59.9968 51.2712 61.202 49.4988C62.4356 47.6725 63.4286 45.6943 64.1562 43.6134C64.8943 41.4847 65.3519 39.2686 65.5175 37.0214C65.6893 34.7182 65.5586 32.4024 65.1285 30.1333C64.6889 27.8171 63.9501 25.568 62.9308 23.4426C61.9014 21.277 60.5871 19.2591 59.0229 17.4425C57.4307 15.5884 55.6008 13.9529 53.5807 12.5785C51.5293 11.1747 49.3005 10.0501 46.953 9.23448C44.5652 8.39288 42.0736 7.88236 39.5475 7.71713C36.9422 7.55979 34.3556 7.71713 31.8489 8.22913C29.265 8.76247 26.7556 9.62648 24.4247 10.7892C22.0199 11.9919 19.7843 13.5072 17.7758 15.2959C15.721 17.1226 13.917 19.2137 12.4107 21.5146C10.8853 23.8702 9.66352 26.4095 8.77457 29.072C7.87451 31.7899 7.33276 34.6138 7.16296 37.4721C6.98715 40.4054 7.1816 43.3201 7.76498 46.1521C8.34837 49.0855 9.32066 51.8989 10.6233 54.5176C11.9529 57.2131 13.6323 59.721 15.618 61.9763C17.6282 64.261 19.929 66.2719 22.4615 67.9577C25.0454 69.6697 27.8451 71.027 30.7408 71.9924C33.7349 72.9764 36.825 73.5657 39.9151 73.7444C43.0892 73.9279 46.2736 73.683 49.3824 73.0164C52.5446 72.3398 55.6035 71.2477 58.4796 69.7684C61.4035 68.2632 64.1157 66.3775 66.5457 64.1603L71.1355 69.315C68.2575 71.9341 65.0486 74.1638 61.5909 75.9471C54.7986 79.4532 47.1979 81.0904 39.5661 80.6911C32.1311 80.2821 24.939 77.8982 18.7294 73.7844C15.6905 71.769 12.9316 69.3596 10.5247 66.619C8.13355 63.9147 6.11341 60.9033 4.51773 57.6642C2.93333 54.4704 1.77102 51.0837 1.06006 47.5895C0.355632 44.141 0.10665 40.6148 0.319504 37.1014C0.513966 33.6774 1.17458 30.232 2.2641 26.9253C3.33231 23.6986 4.81077 20.6079 6.69678 17.7359C8.53312 14.9286 10.7291 12.3744 13.2285 10.1385C18.1178 5.7643 24.0807 2.7696 30.5063 1.46107C33.626 0.827716 36.8165 0.61605 39.9923 0.831732C43.1011 1.04507 46.1725 1.67707 49.1667 2.69842C52.0623 3.70376 54.8221 5.1011 57.4087 6.85312C62.4367 10.2618 66.4683 14.9484 69.0897 20.4319C70.3737 23.0693 71.2874 25.9013 71.8521 28.8347C72.3836 31.7017 72.5466 34.625 72.3369 37.5334C72.1177 40.3901 71.5367 43.2074 70.6081 45.9175C69.6851 48.5677 68.4235 51.0873 66.8547 53.4135C65.3123 55.6923 63.4761 57.7572 61.3938 59.5549C59.3561 61.3153 57.0943 62.7976 54.6675 63.963C52.2917 65.1032 49.7756 65.9237 47.1848 66.403C44.6754 66.875 42.0915 66.9923 39.4862 66.7763C34.4562 66.3571 29.6301 64.5975 25.5089 61.6803C23.5177 60.262 21.7211 58.5881 20.1653 56.7016C18.6341 54.843 17.3526 52.7917 16.3533 50.6002C14.4021 46.3294 13.6118 41.6186 14.0623 36.9441C14.2755 34.6987 14.7816 32.496 15.5754 30.3493C16.3485 28.2814 17.3882 26.3235 18.6682 24.5253C21.1411 21.05 24.4958 18.2984 28.3859 16.5545C30.2505 15.7172 32.2189 15.1342 34.2384 14.8212C36.199 14.5061 38.194 14.4666 40.1655 14.7039C42.0937 14.9322 43.983 15.4165 45.7836 16.1439C47.5151 16.8292 49.1667 17.7759 50.701 18.9359C53.6244 21.1555 55.9001 24.1187 57.2914 27.5173C57.9521 29.1307 58.3996 30.8427 58.634 32.6134C58.8471 34.2854 58.8258 36.0187 58.5941 37.7307C58.3623 39.3751 57.9181 40.9823 57.2728 42.5121C56.6422 43.9924 55.818 45.3823 54.8221 46.6455C53.8897 47.8268 52.7229 48.9468 51.4789 49.8722C50.2734 50.7626 48.9524 51.4848 47.5524 52.0189C46.1974 52.5355 44.779 52.8665 43.3355 53.0029C40.5838 53.2735 37.811 52.775 35.3253 51.5629C34.1523 50.99 33.0611 50.2626 32.0807 49.4002C31.1424 48.5527 30.3185 47.5863 29.6299 46.5255C28.9777 45.4943 28.462 44.3828 28.0956 43.2188C27.3971 41.0136 27.316 38.6588 27.8611 36.4107C28.1142 35.408 28.5431 34.344 29.0679 33.4214C29.5527 32.5734 30.2133 31.7067 30.9512 31C31.6145 30.3307 32.4696 29.72 33.3247 29.2667C34.1026 28.8533 35.0349 28.52 35.9486 28.3413C36.8253 28.1671 37.7226 28.1213 38.6125 28.2053C39.409 28.2853 40.3013 28.52 41.0792 28.8347C41.7984 29.128 42.5576 29.6027 43.1597 30.1147C43.7031 30.5867 44.2865 31.256 44.6754 31.904C44.9098 32.2773 45.1256 32.752 45.2801 33.1654Z" fill="white"/>
</svg>
