<svg width="440" height="136" viewBox="0 0 440 136" fill="none" xmlns="http://www.w3.org/2000/svg">
<path d="M131.81 123.538C128.383 119.702 126.546 108.485 121.557 106.974C118.535 106.102 125.042 120.705 125.303 120.632C117.942 125.18 109.395 105.187 109.728 105.318C110.653 105.579 118.925 110.461 119.258 108.95C119.258 108.95 99.3443 89.1462 107.558 110.999C112.229 123.407 135.816 127.824 131.81 123.538C133.054 124.787 130.682 122.288 131.81 123.538Z" fill="white"/>
<path d="M33.676 95.8157C35.8252 87.0332 36.6923 77.9835 36.2502 68.9504C35.7874 61.7582 34.2689 54.5515 33.8062 46.8362C33.8062 45.8482 34.4714 45.2525 35.3825 46.0371C40.7766 50.861 56.9444 56.9925 56.9444 63.9958C56.9444 73.3093 33.1554 97.9952 33.676 95.8157Z" fill="white"/>
<path d="M28.0075 109.343C24.1318 112.902 16.1058 121.359 16.6408 127.229C16.8288 128.682 7.57353 128.493 7.11076 129.277C8.75936 126.371 24.7826 104.126 28.2678 106.306C21.2974 98.0531 -2.80976 136.339 1.19605 135.743C28.2678 131.66 28.9909 108.355 28.0075 109.343Z" fill="white"/>
<path d="M41.8032 40.0364C45.3463 39.3099 81.6734 36.5347 88.6438 36.6074C89.4247 36.6074 89.5549 37.2031 89.2367 37.5954C85.5491 42.2158 64.9271 58.9104 62.888 57.1959C61.7745 56.3386 37.7974 40.9663 41.8032 40.0364Z" fill="white"/>
<path d="M132.013 0.820657C127.024 0.297589 113.213 2.53517 109.409 12.3718C106.85 19.1716 103.77 29.4731 104.088 29.4005C104.406 29.3278 114.341 26.8288 113.878 24.4604C113.415 22.0921 106.532 24.9835 107.052 24.1989C112.041 15.7426 115.729 6.89406 126.691 5.12145C126.04 5.25221 115.122 23.7921 115.454 23.9228C119.475 25.7826 132.808 0.951424 132.013 0.820657C133.661 1.02407 130.436 0.68989 132.013 0.820657Z" fill="white"/>
<path d="M92.854 98.9103C84.3796 96.8035 28.0668 110.868 41.9353 94.8856C48.1681 87.7661 62.297 69.7348 73.6636 75.9971C78.5227 78.7141 97.5828 100.16 92.854 98.9684" fill="white"/>
<path d="M86.3452 101.758C79.1145 103.342 62.0355 109.546 53.6913 104.664C54.935 103.807 93.706 100.116 86.3452 101.758Z" fill="white"/>
<path d="M30.3059 36.4764C35.1649 34.82 25.172 18.1836 26.1554 23.2689C26.6182 25.7099 27.7462 37.3336 30.3059 36.4764ZM15.1214 34.4277C17.4208 38.9755 26.488 37.8567 29.8431 37.9294C30.436 37.9294 30.3637 37.5952 30.1034 37.5225C19.7924 33.7594 16.6398 31.4491 11.911 19.6365C13.6174 20.2322 24.5213 22.6732 25.8373 20.6972C25.6348 20.9587 8.68604 12.3717 7.2399 12.5025C5.07069 12.6478 14.0079 32.4371 15.1214 34.4277C15.3238 34.8927 14.4706 33.3089 15.1214 34.4277Z" fill="white"/>
<path d="M95.6711 87.4901C92.8511 88.5507 77.0737 66.1751 77.146 62.4845C77.4063 55.3505 93.632 45.4412 98.1729 40.69C98.7514 40.0362 99.2864 40.2396 99.2864 40.7627C99.4166 47.9549 97.7101 55.9462 97.2474 63.0076C96.7846 70.6647 98.4332 86.5021 95.6711 87.4901Z" fill="white"/>
<path d="M99.9379 83.6691C98.7521 84.7298 99.4173 44.8604 103.033 46.1681C104.146 46.5749 102.498 81.0393 99.9379 83.6691Z" fill="white"/>
<path d="M326.31 30.7839C325.223 30.3075 324.042 30.0897 322.858 30.1477C321.674 30.2057 320.519 30.5378 319.484 31.118C318.24 31.6411 316.982 32.1787 315.681 32.7018L313.96 33.5009C313.83 33.5009 313.772 33.5009 313.699 33.3701C313.627 33.2394 313.512 32.9633 313.381 32.7744C313.256 32.3961 313.076 32.0386 312.846 31.7138C312.365 31.1339 311.788 30.6423 311.14 30.2608C310.752 30.1567 310.355 30.0886 309.954 30.0574C307.785 30.0574 306.02 32.2368 306.02 35.0701V61.2235C305.945 62.0224 306.08 62.8272 306.412 63.5568C306.745 64.2864 307.263 64.9149 307.915 65.379C308.61 65.8735 309.435 66.1515 310.287 66.1781C310.928 66.1761 311.555 65.9869 312.092 65.6336C312.628 65.2802 313.051 64.7778 313.309 64.1876C313.802 63.0691 314.025 61.8493 313.96 60.6278V56.2689C313.96 52.3023 313.96 48.2049 314.09 44.1221C314.018 42.272 314.56 40.4505 315.631 38.9436C316.701 37.4367 318.24 36.3297 320.005 35.7966C320.388 35.6607 320.786 35.5728 321.19 35.5351C323.027 35.5351 324.285 36.988 324.734 39.2256C325.004 40.6186 325.139 42.0345 325.138 43.4537C325.138 46.8246 325.138 50.1228 325.138 53.3629V59.3637C325.138 60.2209 325.138 61.1509 325.269 62.0081C325.543 64.5072 326.975 66.2362 328.826 66.2362C329.493 66.1777 330.139 65.9744 330.721 65.6405C331.348 65.187 331.849 64.578 332.173 63.8728C332.497 63.1676 332.635 62.3901 332.572 61.6158C332.572 55.8039 332.572 49.9921 332.572 44.311V43.1922C332.572 42.1335 332.509 41.0758 332.384 40.0247C332.238 38.0682 331.591 36.1827 330.507 34.551C329.422 32.9193 327.937 31.5966 326.194 30.7112M363.519 66.7593L364.242 65.2337C366.34 60.6227 367.542 55.6518 367.785 50.5878C367.915 46.4323 367.785 42.1315 367.785 38.0487V35.3317C367.764 34.4129 367.608 33.5022 367.322 32.6291C367.129 31.8364 366.64 31.1485 365.957 30.7078C365.273 30.267 364.447 30.107 363.649 30.2608C361.35 30.3916 360.106 31.9753 360.106 34.8812V38.441C360.106 41.5358 360.106 44.7759 359.904 47.9434C359.864 49.9006 359.621 51.8483 359.181 53.7553C358.53 57.0535 356.288 59.3056 353.526 59.3056C352.943 59.2914 352.366 59.1784 351.82 58.9714C349.058 57.9834 347.481 55.6005 346.903 52.0989C346.467 48.4439 346.399 44.754 346.7 41.0854V39.6324C346.7 38.9786 346.7 38.3102 346.7 37.6564C346.773 36.2034 346.845 34.7505 346.845 33.2975C346.875 32.6618 346.73 32.0301 346.426 31.4715C346.123 30.9129 345.672 30.4489 345.124 30.13C344.492 29.7506 343.763 29.5638 343.027 29.5924H342.564C341.796 29.6242 341.062 29.9155 340.479 30.4192C339.896 30.9229 339.5 31.6094 339.354 32.3676C338.882 33.7771 338.596 35.2425 338.501 36.7265C338.356 39.7632 338.501 42.8725 338.501 45.4443C338.486 48.7828 338.904 52.1091 339.744 55.339C340.364 58.5868 341.971 61.5616 344.343 63.8534C347.033 66.367 349.867 66.8901 352.745 65.3063C353.263 65.0561 353.749 64.7439 354.191 64.3764C354.452 64.173 354.842 63.9841 355.102 63.7807H355.305C355.612 63.5023 356.005 63.3381 356.419 63.3158C356.548 63.2991 356.68 63.3204 356.798 63.3771C356.916 63.4338 357.015 63.5235 357.084 63.6354C357.185 64.122 357.14 64.6279 356.954 65.0884L356.881 65.2192C356.61 66.2155 356.257 67.1875 355.826 68.1251C354.592 70.8444 353.689 73.7031 353.136 76.6395C352.627 78.7998 352.515 81.0351 352.803 83.2359C353.526 86.8102 355.377 88.9752 358.327 89.7016C359.581 89.976 360.864 90.0883 362.145 90.0358H363.244C364.408 90.0597 365.545 89.6857 366.469 88.9752C368.103 87.7256 368.508 84.4274 367.25 82.1898C366.99 81.7135 366.623 81.3042 366.179 80.9941C365.735 80.684 365.226 80.4816 364.69 80.4026L364.43 80.2719C363.628 80.1396 362.902 79.7156 362.391 79.0805C361.659 78.102 361.186 76.9536 361.014 75.742C360.842 74.5304 360.977 73.2947 361.408 72.1498C362.131 70.3045 362.854 68.4593 363.707 66.6721M439.253 42.4512C439.253 39.8649 439.253 37.1043 439.253 34.4599C439.253 31.8155 437.735 30.101 435.508 30.101H435.378C433.209 30.101 431.893 31.4813 431.502 34.1257C431.364 35.1319 431.296 36.1466 431.3 37.1624V38.0487C431.3 42.1315 431.3 46.3597 431.3 50.5151C431.3 55.2663 429 59.3056 425.515 60.3517C424.983 60.5363 424.428 60.6486 423.867 60.6859C423.404 60.6812 422.952 60.5414 422.567 60.2834C422.182 60.0254 421.88 59.6604 421.697 59.2329C421.257 58.4362 420.967 57.5642 420.844 56.6612C420.584 54.6852 420.396 52.1715 420.323 49.6579C420.323 46.752 420.323 43.6572 420.323 40.9401V34.8086C420.373 34.1519 420.267 33.4927 420.016 32.8845C419.765 32.2762 419.375 31.7358 418.877 31.3069C418.235 30.783 417.469 30.4342 416.653 30.2943C415.838 30.1543 415 30.2278 414.221 30.5078C412.514 31.1762 412.124 33.4137 412.124 35.1282C412.124 40.8093 412.124 46.9409 412.124 54.0168C412.125 56.8929 412.998 59.7004 414.626 62.0662C416.592 64.8414 418.632 66.0909 420.859 66.0909H421.451C423.135 65.8925 424.79 65.4976 426.383 64.914C427.49 64.5063 428.568 64.0207 429.608 63.4611L430.982 62.6619H431.112L431.314 62.7927C431.405 62.9347 431.469 63.0923 431.502 63.2577C431.72 63.5639 431.9 63.8957 432.037 64.2457C432.356 64.8524 432.84 65.3553 433.433 65.6951C434.026 66.0349 434.703 66.1976 435.385 66.164C436.067 66.1304 436.725 65.902 437.282 65.5056C437.84 65.1091 438.273 64.5611 438.53 63.926C439.1 62.6399 439.349 61.2333 439.253 59.8287V42.5384V42.4512ZM289.925 29.7668C288.86 29.625 287.788 29.5377 286.715 29.5052C284.615 29.4546 282.55 30.0531 280.8 31.2198C279.021 32.4838 277.315 33.7334 275.478 35.1864C275.016 35.584 274.616 36.0494 274.292 36.5667C273.991 37.0014 273.823 37.5155 273.811 38.045C273.798 38.5746 273.94 39.0963 274.22 39.5452C274.683 40.3299 275.348 40.3299 276.201 39.8649C277.298 39.2128 278.351 38.4896 279.354 37.7C279.873 37.3505 280.357 36.9515 280.8 36.5086C281.465 36.0436 282.043 35.5205 282.636 35.0556C283.583 34.3288 284.742 33.9357 285.934 33.9368C286.22 33.9254 286.506 33.9498 286.787 34.0095C287.726 34.1784 288.571 34.6869 289.163 35.4392C289.754 36.1914 290.051 37.1352 289.997 38.0923C290.034 38.7747 290.034 39.4586 289.997 40.141V41.5939C290.03 41.7792 290.023 41.9692 289.978 42.1519C289.934 42.3345 289.851 42.5057 289.737 42.6546C289.496 42.8559 289.197 42.9732 288.884 42.9888H287.626H284.545C283.923 42.9956 283.303 43.0637 282.694 43.1922C280.219 43.927 277.95 45.2359 276.071 47.0135C273.828 48.8832 272.2 51.3902 271.4 54.2057C270.984 55.6207 270.941 57.12 271.276 58.5566C271.611 59.9932 272.311 61.3177 273.309 62.4004C274.773 63.8863 276.512 65.0709 278.428 65.8875C279.478 66.3881 280.637 66.6145 281.797 66.5459C282.957 66.4774 284.082 66.116 285.066 65.4952L288.218 63.5192L289.795 62.5312H289.925L290.127 62.6619V62.7927C290.224 62.8834 290.294 62.999 290.33 63.1269C291.255 65.2337 292.166 66.0328 293.873 66.0328C294.447 66.0231 295.019 65.9549 295.579 65.8294C296.046 65.7054 296.464 65.444 296.781 65.0789C297.098 64.7137 297.299 64.2616 297.358 63.7807C297.578 62.8265 297.709 61.8536 297.749 60.8748V39.5888C297.781 37.0788 296.866 34.6495 295.189 32.789C293.774 31.1986 291.841 30.168 289.737 29.883M289.737 55.6296C289.196 56.9096 288.328 58.0231 287.221 58.8575C286.113 59.6919 284.806 60.2174 283.432 60.3808C282.941 60.3557 282.455 60.2678 281.986 60.1192C280.73 59.5112 279.731 58.4743 279.166 57.1939C278.602 55.9135 278.51 54.4732 278.905 53.1305C279.107 52.3521 279.544 51.6554 280.154 51.1353C280.765 50.6152 281.521 50.2972 282.318 50.2246C283.501 50.1193 284.688 50.0756 285.876 50.0938H288.768C289.043 50.0938 289.361 50.0938 289.621 50.0938C289.755 50.1174 289.892 50.1174 290.026 50.0938C290.061 50.0917 290.096 50.097 290.128 50.1094C290.161 50.1218 290.19 50.1409 290.215 50.1657C290.24 50.1904 290.259 50.2201 290.271 50.2528C290.283 50.2855 290.289 50.3204 290.286 50.3553V51.8083C290.418 53.1008 290.259 54.4064 289.824 55.6296M393.613 30.4206C391.824 30.428 390.065 30.8824 388.494 31.7428C387.771 32.1351 387.178 32.6001 386.585 32.9197L385.934 33.3847C385.727 33.4846 385.498 33.5296 385.269 33.5154C385.074 33.4852 384.891 33.4013 384.74 33.2731C384.59 33.1449 384.478 32.9773 384.416 32.789C384.073 32.0027 383.514 31.3309 382.804 30.8523C382.095 30.3737 381.264 30.108 380.41 30.0864C379.321 30.1082 378.283 30.5566 377.518 31.336C376.517 32.6047 376.045 34.2143 376.202 35.8257V48.6989C376.202 60.5116 376.202 72.3387 376.202 84.2094C376.168 85.1852 376.256 86.1613 376.462 87.1154C376.521 88.1289 376.948 89.0855 377.662 89.8034C378.377 90.5213 379.329 90.9504 380.338 91.0093H380.598C381.528 91.0084 382.427 90.6767 383.137 90.0729C383.846 89.4691 384.32 88.6324 384.474 87.7111C384.658 86.5533 384.745 85.3819 384.734 84.2094C384.734 79.589 384.734 75.0267 384.734 70.4789V65.3935C384.746 65.337 384.77 65.2839 384.805 65.2384C384.841 65.1928 384.886 65.156 384.938 65.1308C384.989 65.1055 385.046 65.0925 385.103 65.0927C385.161 65.0929 385.218 65.1063 385.269 65.132C385.399 65.132 385.457 65.2627 385.529 65.2627V65.3354C386.61 66.1198 387.874 66.6108 389.199 66.761C390.524 66.9111 391.865 66.7154 393.093 66.1926C396.055 65.1318 398.716 63.3614 400.844 61.0346C402.688 59.2276 404.042 56.9769 404.777 54.4963C406.096 49.5951 405.96 44.4136 404.387 39.5888C402.55 33.9077 398.342 30.348 393.483 30.348M397.821 48.234C397.945 51.3559 397.454 54.4716 396.375 57.4022C395.92 58.6405 395.121 59.7217 394.073 60.5175C393.024 61.3132 391.771 61.7902 390.461 61.8919C389.901 61.8839 389.348 61.7756 388.827 61.5722C387.178 60.8457 386.064 59.3201 385.211 56.8065C384.1 53.134 383.674 49.2869 383.953 45.4588C383.953 44.6742 384.155 44.0059 384.286 43.2212V43.1486C384.462 41.314 385.201 39.5796 386.401 38.1847C387.6 36.7899 389.2 35.8032 390.981 35.3607C391.265 35.3253 391.551 35.3253 391.835 35.3607C392.865 35.4429 393.848 35.8326 394.657 36.4798C395.466 37.1269 396.065 38.0021 396.375 38.9931C397.394 41.5556 397.886 44.2986 397.821 47.0571C397.893 47.3137 397.893 47.5851 397.821 47.8417V48.234ZM221.595 29.883C220.351 29.7523 219.295 29.6215 218.37 29.6215C216.272 29.5855 214.212 30.1827 212.455 31.336C210.691 32.6001 209.042 33.8496 207.206 35.3026C206.728 35.7012 206.309 36.1659 205.962 36.6829C205.694 37.1332 205.553 37.6478 205.553 38.1722C205.553 38.6966 205.694 39.2112 205.962 39.6615C206.483 40.4461 207.075 40.4461 207.929 39.9811C209.038 39.35 210.093 38.6257 211.081 37.8162C211.616 37.4094 212.209 37.0171 212.672 36.6248C213.135 36.2325 213.843 35.6368 214.509 35.1718C215.441 34.4278 216.601 34.0323 217.791 34.053C218.035 34.0411 218.278 34.0656 218.514 34.1257C219.469 34.2863 220.334 34.7877 220.951 35.5378C221.567 36.2878 221.893 37.2362 221.869 38.2085C221.869 38.935 221.869 39.6615 221.869 40.3299V41.7102C221.894 42.093 221.775 42.4712 221.537 42.7708C221.425 42.8827 221.292 42.9701 221.145 43.0276C220.998 43.0851 220.841 43.1114 220.684 43.105H219.368H216.475C215.858 43.1048 215.242 43.173 214.639 43.3084C212.131 44.027 209.831 45.3372 207.929 47.1297C205.71 49.018 204.091 51.5185 203.272 54.3219C202.853 55.7367 202.809 57.2367 203.144 58.6738C203.479 60.111 204.181 61.4355 205.181 62.5166C206.679 63.9955 208.44 65.1784 210.373 66.0038C211.42 66.503 212.577 66.7288 213.734 66.6602C214.892 66.5916 216.014 66.2309 216.996 65.6115C217.994 64.9576 219.107 64.2893 220.221 63.6354C220.684 63.3012 221.204 62.9816 221.667 62.6474H221.869L222 62.7782L222.13 62.9089C222.13 62.9816 222.13 63.1124 222.13 63.2431C223.113 65.3499 224.039 66.149 225.745 66.149C226.343 66.1319 226.938 66.0639 227.524 65.9456C227.982 65.8091 228.392 65.5436 228.704 65.1805C229.017 64.8175 229.22 64.3721 229.288 63.8969C229.496 62.942 229.607 61.9684 229.621 60.991C229.621 55.9638 229.621 51.0237 229.621 46.1417V39.3999C229.66 36.8751 228.716 34.4349 226.989 32.6001C225.574 31.0097 223.641 29.9791 221.537 29.6941M221.537 55.4407C221.01 56.7303 220.146 57.8527 219.036 58.6891C217.926 59.5255 216.611 60.0448 215.232 60.1919C214.716 60.1798 214.204 60.0917 213.713 59.9304C212.477 59.3003 211.495 58.2607 210.934 56.9873C210.373 55.7138 210.266 54.2847 210.633 52.9416C210.847 52.1564 211.296 51.4564 211.92 50.9366C212.543 50.4167 213.311 50.1022 214.118 50.0357C215.296 49.9279 216.479 49.8842 217.661 49.9049H220.554C220.886 49.9049 221.146 49.9049 221.407 49.9049C221.56 49.9333 221.717 49.9333 221.869 49.9049C222 49.9049 222.072 50.0357 222.072 50.1664V51.6194C222.176 52.9115 222.019 54.2114 221.609 55.4407M192.441 51.1545C191.978 50.6314 191.587 50.0938 191.125 49.5707C190.662 49.0476 190.402 48.7135 190.011 48.3212L189.606 47.8562C189.606 47.7254 189.606 47.6528 189.606 47.5947C190.069 46.8682 190.532 46.1417 191.052 45.546C192.108 44.093 193.091 42.6401 194.075 41.1871C195.478 39.0011 196.559 36.6227 197.285 34.1257C197.546 33.5469 197.611 32.8983 197.47 32.279C197.329 31.6597 196.99 31.1039 196.504 30.6967C195.77 30.0569 194.843 29.6834 193.872 29.636C193.371 29.6553 192.882 29.7978 192.448 30.0511C192.015 30.3045 191.649 30.6608 191.385 31.089C190.387 32.542 189.404 34.1257 188.493 35.7094L188.362 35.8983C187.509 37.3513 186.714 38.8042 185.861 40.2572C185.528 40.9256 185.137 41.5794 184.805 42.2332C184.777 42.277 184.738 42.3131 184.693 42.3384C184.647 42.3637 184.596 42.3775 184.545 42.3785C184.545 42.3785 184.414 42.3785 184.414 42.2332C184.008 41.7776 183.635 41.2919 183.301 40.7803C182.578 39.647 181.855 38.6589 181.132 37.5983C180.409 36.5376 179.686 35.0992 179.035 33.9077C178.63 33.1231 178.239 32.4548 177.849 31.5975C177.561 30.9836 177.104 30.4649 176.533 30.1021C175.962 29.7393 175.3 29.5474 174.624 29.5488H174.031C173.627 29.5923 173.237 29.7209 172.885 29.9262C172.534 30.1315 172.23 30.4089 171.992 30.7403C171.732 31.2223 171.581 31.7558 171.548 32.303C171.516 32.8503 171.603 33.3981 171.804 33.9077C172.508 36.3042 173.618 38.5605 175.087 40.5769C176.143 42.0298 177.184 43.352 178.37 44.805C178.832 45.4588 179.353 46.0545 179.816 46.7084C179.816 46.8391 179.816 46.9118 179.816 46.9844C179.716 47.1429 179.583 47.277 179.425 47.3767C179.295 47.6383 179.093 47.8417 178.963 48.1032C178.445 48.7148 177.962 49.3551 177.516 50.0211C176.2 51.7356 174.827 53.5082 173.568 55.2954C172.252 57.1308 171.273 59.1875 170.676 61.3688C170.141 63.2141 170.401 64.7397 171.587 65.4662C172.198 65.9242 172.936 66.1783 173.699 66.1926C174.476 66.1679 175.232 65.9337 175.889 65.5145C176.545 65.0953 177.077 64.5065 177.43 63.8098L178.485 61.8919L178.876 61.1073C180.159 58.4399 181.847 55.9891 183.879 53.8424C184.863 52.7236 185.716 52.3895 186.772 53.8424C188.111 55.5201 189.343 57.2818 190.459 59.1167C191.038 60.1192 191.573 61.1654 192.093 62.1534C192.393 62.9043 192.746 63.6327 193.149 64.3328C193.367 64.8734 193.738 65.3377 194.216 65.6683C194.694 65.9989 195.259 66.1812 195.839 66.1926C196.577 66.1765 197.299 65.9715 197.936 65.5969C198.234 65.4162 198.47 65.1481 198.612 64.8286C198.755 64.5091 198.796 64.1536 198.731 63.8098C198.44 61.408 197.704 59.0821 196.562 56.9518C195.426 54.8911 194.037 52.9823 192.426 51.2707M264.56 62.7491C264.501 62.2666 264.501 61.7787 264.56 61.2961V39.5017L264.487 35.4769C264.575 34.1727 264.3 32.8695 263.692 31.7138C263.338 31.0796 262.824 30.55 262.202 30.1777C261.581 29.8055 260.873 29.6036 260.149 29.5924C259.615 29.6157 259.086 29.7035 258.573 29.854C256.938 30.5805 256.071 32.1642 256.071 34.7505V44.9212C256.134 46.3616 255.887 47.7988 255.348 49.1348C254.806 50.3452 253.991 51.4117 252.967 52.2493C251.942 53.0868 250.737 53.6722 249.447 53.9587C248.642 54.1009 247.813 53.9373 247.12 53.4996C246.428 53.062 245.923 52.3815 245.702 51.5903C245.08 49.9449 244.79 48.1915 244.849 46.4323V42.4802C244.849 40.7657 244.849 39.894 244.776 36.2034C244.773 34.9121 244.598 33.627 244.256 32.3821C244.049 31.5691 243.584 30.8458 242.932 30.3215C242.28 29.7972 241.475 29.5005 240.64 29.4762C240.136 29.4529 239.634 29.5627 239.185 29.7947C238.736 30.0266 238.355 30.3727 238.081 30.7984C237.427 31.8928 237.105 33.1553 237.155 34.4308C237.227 34.9562 237.227 35.4891 237.155 36.0146V36.1453C237.204 36.6284 237.204 37.1152 237.155 37.5983V40.635C237.155 42.8871 237.155 45.1246 237.155 47.3767C237.138 50.3971 238.058 53.3478 239.787 55.8185C241.161 57.6056 242.998 59.7124 245.76 59.4509C248.873 59.2077 251.867 58.1399 254.437 56.3561C254.854 56.0015 255.35 55.7524 255.883 55.6296C256.534 55.6296 256.534 56.2834 256.534 57.6056V62.7491C256.606 66.7012 256.866 67.5584 257.329 68.7499C257.748 69.7449 258.454 70.591 259.356 71.1789C260.258 71.7668 261.315 72.0696 262.39 72.0481C263.489 72.0871 264.57 71.7658 265.471 71.1327C267.249 69.9413 266.454 67.8926 265.601 65.7132C265.133 64.7524 264.801 63.7301 264.617 62.6765" fill="white"/>
<path d="M280.524 95.4405C280.583 96.7513 280.172 98.0398 279.367 99.0729C279.144 99.3818 278.847 99.629 278.503 99.7915C278.159 99.9541 277.78 100.027 277.401 100.003C276.781 99.9724 276.177 99.7945 275.639 99.4838C275.101 99.1731 274.644 98.7384 274.306 98.2156C273.86 97.357 273.613 96.4084 273.583 95.4405C273.514 94.6779 273.656 93.9111 273.993 93.2243C274.33 92.5374 274.848 91.957 275.492 91.5465V92.5345C275.492 93.3337 276.345 93.5952 276.677 93.5952C276.923 93.6172 277.171 93.5902 277.407 93.516C277.642 93.4417 277.861 93.3215 278.05 93.1623C278.24 93.0031 278.396 92.808 278.51 92.5881C278.625 92.3682 278.695 92.1278 278.716 91.8807C279.322 92.2615 279.813 92.8008 280.137 93.4408C280.46 94.0808 280.604 94.7972 280.553 95.5131M270.56 95.9054C270.558 96.9356 270.714 97.9598 271.023 98.9421C271.407 100.094 272.154 101.09 273.15 101.779C274.147 102.468 275.339 102.814 276.547 102.763C277.856 102.814 279.153 102.497 280.293 101.848C281.418 101.048 282.322 99.9734 282.919 98.7252C283.516 97.477 283.787 96.0965 283.706 94.714C283.838 93.2236 283.393 91.7394 282.464 90.5702C281.535 89.401 280.192 88.637 278.716 88.4372V88.103C278.716 87.2457 277.921 87.115 277.531 87.115C277.057 87.0851 276.589 87.2293 276.214 87.5207C275.839 87.8122 275.582 88.2309 275.492 88.6987C273.999 89.1702 272.704 90.1269 271.811 91.4183C270.919 92.7097 270.479 94.2626 270.56 95.8328M254.277 91.6046V96.8934C254.277 98.4772 254.147 100.061 254.147 101.645C254.155 101.797 254.195 101.946 254.263 102.082C254.332 102.219 254.427 102.34 254.543 102.438C254.66 102.536 254.795 102.609 254.941 102.652C255.086 102.696 255.239 102.709 255.39 102.691C256.113 102.691 257.169 102.24 257.169 101.238C257.278 100.21 257.321 99.1763 257.299 98.143C257.658 97.6298 258.054 97.1442 258.485 96.69C258.875 96.8208 259.338 97.0242 259.931 97.155C259.931 97.2857 260.394 98.0122 260.712 98.4772C261.154 99.1833 261.637 99.8625 262.158 100.511C262.681 101.42 263.514 102.109 264.502 102.451C265.491 102.793 266.569 102.764 267.538 102.371C267.851 102.274 268.127 102.082 268.329 101.822C268.53 101.563 268.648 101.247 268.666 100.918C268.672 100.768 268.647 100.618 268.592 100.477C268.538 100.337 268.455 100.21 268.349 100.103C268.243 99.9966 268.116 99.9133 267.977 99.8586C267.837 99.8038 267.688 99.7787 267.538 99.7848C267.177 99.815 266.825 99.9084 266.497 100.061C265.238 100.061 264.197 97.8814 263.214 96.4285C262.594 95.5723 261.747 94.9079 260.77 94.5106C261.749 93.4607 262.808 92.4891 263.937 91.6046C263.937 91.7354 263.792 91.8081 263.792 91.9388C263.814 92.2189 263.945 92.4792 264.156 92.6639C264.367 92.8485 264.641 92.9429 264.92 92.9268C265.351 92.9282 265.773 92.804 266.135 92.5693C266.497 92.3346 266.783 91.9995 266.959 91.6046C266.959 91.2123 267.09 90.8781 267.09 90.6166C267.1 90.3277 267.05 90.0397 266.945 89.7707C266.839 89.5017 266.68 89.2574 266.477 89.0529C266.273 88.8485 266.03 88.6883 265.762 88.5824C265.494 88.4765 265.208 88.427 264.92 88.4372C263.604 88.4372 262.491 89.556 261.638 90.1517C260.14 91.4156 258.734 92.7849 257.429 94.249V90.1517C257.429 88.1756 257.429 86.2577 257.559 84.3398C257.559 84.0852 257.475 83.8378 257.321 83.6357C257.167 83.4336 256.951 83.2879 256.706 83.221C256.324 83.0902 255.924 83.0215 255.52 83.0176C255 83.0176 254.797 83.0903 254.407 83.0903C253.956 83.1187 253.531 83.3065 253.205 83.6204C252.879 83.9342 252.675 84.3538 252.628 84.8047C252.65 85.072 252.77 85.3216 252.965 85.5044C253.161 85.6872 253.417 85.79 253.684 85.7928H254.407L254.277 91.6046ZM247.899 100.061V96.8934C247.899 94.5106 248.159 92.0696 248.159 89.6286C248.16 89.4843 248.131 89.3415 248.074 89.2088C248.017 89.0762 247.934 88.9566 247.83 88.8573C247.726 88.758 247.603 88.6811 247.468 88.6314C247.333 88.5816 247.189 88.56 247.046 88.5679C246.703 88.5582 246.363 88.6309 246.053 88.78C245.744 88.9291 245.474 89.1503 245.267 89.4252C243.243 92.0696 241.261 94.714 239.222 97.4165C239.367 95.702 239.497 93.7841 239.497 91.8081C239.627 91.7354 239.627 91.2123 239.627 90.7474C239.66 90.44 239.629 90.1292 239.537 89.8342C239.445 89.5392 239.294 89.2665 239.092 89.0329C238.589 88.6493 237.954 88.4821 237.328 88.5679C236.735 88.5679 236.07 88.6987 235.882 88.6987H235.752C235.302 88.7221 234.873 88.899 234.536 89.2001C234.2 89.5012 233.976 89.9086 233.901 90.3551C233.904 90.4966 233.936 90.6358 233.996 90.764C234.056 90.8922 234.141 91.0064 234.247 91.0994C234.354 91.1924 234.478 91.2621 234.612 91.304C234.747 91.346 234.889 91.3593 235.029 91.3431H236.475V92.0696C236.475 92.7961 236.345 93.5226 236.345 94.1183C236.345 95.702 236.07 97.5473 236.07 99.2036C236.025 100.113 236.118 101.024 236.345 101.906C236.345 102.502 236.923 102.691 237.458 102.691C237.856 102.703 238.249 102.598 238.588 102.389C238.927 102.18 239.198 101.876 239.367 101.514C241.131 99.2036 242.968 96.69 244.747 94.249V100.061C244.877 102.502 245.99 102.967 247.769 102.967H248.622C249.08 102.917 249.509 102.716 249.842 102.395C250.174 102.075 250.391 101.652 250.459 101.194C250.458 101.053 250.427 100.914 250.369 100.786C250.311 100.658 250.227 100.544 250.122 100.451C250.016 100.357 249.893 100.287 249.759 100.245C249.626 100.203 249.485 100.19 249.345 100.206H248.492C248.328 100.21 248.167 100.164 248.029 100.075L247.899 100.061ZM222.274 99.596V99.2036C222.261 97.119 222.573 95.0452 223.199 93.0576C223.336 92.5902 223.623 92.1814 224.016 91.8949C224.408 91.6085 224.883 91.4604 225.368 91.4739C226.068 91.4846 226.738 91.7648 227.238 92.2569C227.739 92.7489 228.032 93.4152 228.058 94.1183C228.071 94.3252 228.026 94.5316 227.928 94.714C227.335 97.4165 225.166 99.0002 222.274 99.596ZM219.121 99.4652C219.156 102.236 219.442 104.999 219.974 107.718C220.046 107.979 220.201 108.21 220.415 108.375C220.629 108.54 220.89 108.631 221.16 108.633C221.656 108.635 222.135 108.456 222.51 108.13C222.884 107.805 223.129 107.354 223.199 106.861V106.585C222.839 105.11 222.597 103.609 222.476 102.095C224.284 101.803 225.991 101.066 227.447 99.9511C228.903 98.8357 230.062 97.376 230.82 95.702C231.067 94.884 231.222 94.0409 231.283 93.1884C231.321 92.5717 231.228 91.9538 231.011 91.3759C230.793 90.798 230.456 90.2732 230.021 89.8363C229.586 89.3994 229.063 89.0603 228.488 88.8416C227.913 88.623 227.298 88.5297 226.684 88.5679C220.567 88.5679 219.121 94.249 219.121 99.4652ZM206.713 96.69C207.741 95.722 209.057 95.1196 210.459 94.9755C210.719 95.886 210.917 96.8132 211.052 97.7507C210.499 98.0432 209.968 98.3733 209.461 98.7387C208.853 99.0754 208.22 99.3621 207.566 99.596C206.908 99.833 206.223 99.9891 205.527 100.061H205.397V99.7267C205.645 98.6413 206.091 97.6115 206.713 96.69ZM209.461 92.7961C207.931 93.2257 206.471 93.8714 205.122 94.714C203.523 96.1608 202.535 98.1673 202.36 100.322C202.36 102.095 203.546 102.691 204.92 102.691C205.859 102.697 206.793 102.544 207.682 102.24C209.061 101.807 210.381 101.207 211.616 100.453C211.632 100.906 211.724 101.354 211.89 101.775C212.151 102.822 213.467 102.633 214.19 102.633C214.656 102.617 215.101 102.436 215.448 102.122C215.794 101.809 216.02 101.382 216.084 100.918C216.084 100.061 215.101 99.9301 214.638 99.9301C214.151 97.0983 213.425 94.3131 212.469 91.6046C212.252 90.7149 211.749 89.922 211.038 89.3492C210.326 88.7764 209.447 88.4558 208.535 88.4372C207.861 88.4463 207.195 88.5793 206.568 88.8295C206.239 88.9063 205.944 89.0904 205.729 89.3532C205.515 89.616 205.393 89.9427 205.383 90.2824C205.383 90.5984 205.508 90.9015 205.73 91.1249C205.952 91.3484 206.254 91.4739 206.568 91.4739C206.949 91.4334 207.323 91.3456 207.682 91.2123C208.275 91.2123 208.868 91.7354 209.446 92.7961M202.216 100.918C202.218 100.764 202.188 100.61 202.129 100.468C202.069 100.326 201.981 100.197 201.87 100.091C201.758 99.9842 201.626 99.902 201.482 99.8494C201.337 99.7968 201.183 99.7748 201.03 99.7848C200.567 99.7848 200.046 99.9301 199.584 99.9301H199.453C198.861 98.4772 196.301 90.4858 193.076 81.1723C193.009 80.9627 192.878 80.7796 192.701 80.6492C192.525 80.5187 192.312 80.4476 192.093 80.4458C191.576 80.4516 191.08 80.6517 190.702 81.0067C190.325 81.3617 190.093 81.8459 190.054 82.3638V82.7561C190.208 83.0322 190.343 83.3186 190.458 83.6133V83.7441C189.012 88.103 188.289 92.0696 186.438 96.0943C185.444 92.53 184.192 89.0434 182.693 85.662C181.521 83.221 180.393 80.1843 177.646 80.1843C176.78 80.2971 175.936 80.5421 175.144 80.9108C174.826 81.0745 174.556 81.3188 174.36 81.6195C174.165 81.9202 174.051 82.2669 174.03 82.6253C174.038 82.9197 174.157 83.2 174.365 83.4083C174.572 83.6165 174.851 83.7367 175.144 83.7441C175.438 83.6918 175.724 83.604 175.997 83.4826C176.219 83.2961 176.504 83.2025 176.792 83.221C177.443 83.221 177.906 83.8167 178.759 84.9355C178.759 84.9702 178.745 85.0035 178.721 85.028C178.697 85.0525 178.664 85.0663 178.629 85.0663C176.46 90.2824 175.867 96.8934 172.382 100.787C172.121 101.18 171.861 101.369 171.861 101.775C171.861 102.633 172.844 102.691 173.177 102.691C173.479 102.706 173.779 102.648 174.054 102.521C174.328 102.395 174.568 102.204 174.753 101.964C178.166 98.2738 178.962 92.9268 180.538 88.1756C181.058 89.4252 181.521 90.6166 181.782 91.3431C182.837 94.6413 183.228 97.0242 184.544 100.061C184.535 100.165 184.547 100.271 184.579 100.371C184.611 100.47 184.663 100.563 184.732 100.642C184.862 100.918 185.397 101.049 185.715 101.049C186.013 101.043 186.307 100.976 186.579 100.851C186.85 100.726 187.093 100.546 187.291 100.322C187.418 100.206 187.53 100.074 187.624 99.9301C189.479 96.1373 190.976 92.1775 192.093 88.103C193.669 92.9268 194.855 97.2857 196.561 102.095C196.952 102.952 198.007 102.691 198.268 102.691H200.307C200.784 102.676 201.24 102.489 201.591 102.163C201.942 101.837 202.164 101.395 202.216 100.918Z" fill="white"/>
</svg>
