<svg width="439" height="136" viewBox="0 0 439 136" fill="none" xmlns="http://www.w3.org/2000/svg">
<path d="M131.06 123.038C127.633 119.202 125.796 107.985 120.807 106.474C117.785 105.602 124.292 120.205 124.553 120.132C117.192 124.68 108.645 104.687 108.978 104.818C109.903 105.079 118.175 109.961 118.508 108.45C118.508 108.45 98.5943 88.6461 106.808 110.499C111.479 122.907 135.066 127.324 131.06 123.038C132.304 124.287 129.932 121.788 131.06 123.038Z" fill="white"/>
<path d="M32.926 95.3157C35.0752 86.5332 35.9423 77.4835 35.5001 68.4504C35.0374 61.2582 33.5189 54.0515 33.0561 46.3362C33.0561 45.3482 33.7214 44.7525 34.6324 45.5371C40.0265 50.361 56.1944 56.4925 56.1944 63.4958C56.1944 72.8093 32.4054 97.4952 32.926 95.3157Z" fill="white"/>
<path d="M27.2575 108.843C23.3818 112.402 15.3558 120.859 15.8908 126.729C16.0788 128.182 6.82353 127.993 6.36076 128.777C8.00936 125.871 24.0326 103.627 27.5178 105.806C20.5474 97.5531 -3.55976 135.839 0.446048 135.243C27.5178 131.16 28.2409 107.855 27.2575 108.843Z" fill="white"/>
<path d="M41.0532 39.5363C44.5963 38.8098 80.9234 36.0346 87.8938 36.1073C88.6747 36.1073 88.8048 36.703 88.4867 37.0953C84.799 41.7157 64.177 58.4103 62.138 56.6958C61.0245 55.8386 37.0474 40.4662 41.0532 39.5363Z" fill="white"/>
<path d="M131.263 0.320657C126.273 -0.202411 112.463 2.03517 108.659 11.8718C106.1 18.6716 103.019 28.9731 103.338 28.9005C103.656 28.8278 113.591 26.3288 113.128 23.9604C112.665 21.5921 105.782 24.4835 106.302 23.6989C111.291 15.2426 114.979 6.39406 125.941 4.62145C125.29 4.75221 114.372 23.2921 114.704 23.4228C118.725 25.2826 132.058 0.451424 131.263 0.320657C132.911 0.524072 129.686 0.18989 131.263 0.320657Z" fill="white"/>
<path d="M92.104 98.4103C83.6296 96.3035 27.3168 110.368 41.1853 94.3856C47.4181 87.2661 61.547 69.2348 72.9136 75.4971C77.7727 78.2141 96.8328 99.6599 92.104 98.4684" fill="white"/>
<path d="M85.5952 101.258C78.3645 102.842 61.2855 109.046 52.9413 104.164C54.185 103.307 92.956 99.6164 85.5952 101.258Z" fill="white"/>
<path d="M29.5558 35.9765C34.4149 34.3201 24.422 17.6836 25.4054 22.769C25.8681 25.21 26.9962 36.8337 29.5558 35.9765ZM14.3714 33.9278C16.6707 38.4756 25.738 37.3568 29.0931 37.4294C29.686 37.4294 29.6137 37.0952 29.3534 37.0226C19.0424 33.2594 15.8898 30.9492 11.1609 19.1366C12.8674 19.7323 23.7712 22.1733 25.0872 20.1972C24.8848 20.4588 7.93601 11.8717 6.48987 12.0025C4.32066 12.1478 13.2578 31.9372 14.3714 33.9278C14.5738 34.3927 13.7206 32.809 14.3714 33.9278Z" fill="white"/>
<path d="M94.9211 86.9901C92.1012 88.0508 76.3238 65.6751 76.3961 61.9846C76.6564 54.8505 92.8821 44.9413 97.423 40.1901C98.0014 39.5363 98.5365 39.7397 98.5365 40.2627C98.6666 47.4549 96.9602 55.4462 96.4974 62.5077C96.0347 70.1648 97.6833 86.0021 94.9211 86.9901Z" fill="white"/>
<path d="M99.188 83.1691C98.0022 84.2298 98.6674 44.3604 102.283 45.6681C103.396 46.0749 101.748 80.5393 99.188 83.1691Z" fill="white"/>
<path d="M325.56 30.2839C324.473 29.8075 323.292 29.5898 322.108 29.6478C320.924 29.7057 319.769 30.0378 318.734 30.6181C317.49 31.1412 316.232 31.6788 314.931 32.2019L313.21 33.001C313.08 33.001 313.022 33.001 312.949 32.8702C312.877 32.7394 312.761 32.4634 312.631 32.2745C312.506 31.8962 312.326 31.5387 312.096 31.2138C311.615 30.634 311.038 30.1424 310.39 29.7609C310.001 29.6567 309.605 29.5886 309.204 29.5574C307.035 29.5574 305.27 31.7369 305.27 34.5702V60.7236C305.195 61.5224 305.33 62.3273 305.662 63.0568C305.995 63.7864 306.513 64.415 307.165 64.879C307.86 65.3736 308.685 65.6515 309.537 65.6782C310.178 65.6762 310.805 65.487 311.342 65.1336C311.878 64.7802 312.301 64.2779 312.559 63.6876C313.052 62.5692 313.275 61.3494 313.21 60.1278V55.7689C313.21 51.8023 313.21 47.705 313.34 43.6221C313.268 41.7721 313.81 39.9506 314.881 38.4436C315.951 36.9367 317.49 35.8298 319.255 35.2967C319.638 35.1607 320.036 35.0729 320.44 35.0351C322.277 35.0351 323.535 36.4881 323.983 38.7257C324.254 40.1186 324.389 41.5346 324.388 42.9538C324.388 46.3247 324.388 49.6229 324.388 52.863V58.8638C324.388 59.721 324.388 60.6509 324.519 61.5082C324.793 64.0073 326.225 65.7363 328.076 65.7363C328.743 65.6777 329.389 65.4745 329.971 65.1406C330.598 64.6871 331.099 64.0781 331.423 63.3729C331.747 62.6677 331.885 61.8901 331.822 61.1159C331.822 55.304 331.822 49.4921 331.822 43.811V42.6922C331.822 41.6336 331.759 40.5759 331.634 39.5248C331.488 37.5683 330.841 35.6828 329.757 34.0511C328.672 32.4194 327.187 31.0967 325.444 30.2113M362.769 66.2594L363.492 64.7338C365.59 60.1228 366.792 55.1519 367.035 50.0879C367.165 45.9324 367.035 41.6316 367.035 37.5488V34.8317C367.014 33.9129 366.858 33.0023 366.572 32.1292C366.379 31.3365 365.89 30.6486 365.207 30.2078C364.523 29.767 363.697 29.607 362.899 29.7609C360.6 29.8916 359.356 31.4754 359.356 34.3813V37.9411C359.356 41.0359 359.356 44.276 359.154 47.4435C359.114 49.4007 358.871 51.3484 358.431 53.2553C357.78 56.5535 355.538 58.8057 352.776 58.8057C352.193 58.7914 351.616 58.6784 351.07 58.4715C348.308 57.4834 346.731 55.1006 346.153 51.5989C345.717 47.944 345.649 44.2541 345.95 40.5854V39.1325C345.95 38.4786 345.95 37.8103 345.95 37.1564C346.023 35.7035 346.095 34.2505 346.095 32.7976C346.125 32.1618 345.98 31.5302 345.676 30.9716C345.373 30.413 344.922 29.9489 344.374 29.6301C343.742 29.2507 343.013 29.0639 342.277 29.0925H341.814C341.046 29.1243 340.312 29.4156 339.729 29.9192C339.146 30.4229 338.75 31.1094 338.604 31.8677C338.132 33.2772 337.845 34.7425 337.751 36.2266C337.606 39.2633 337.751 42.3726 337.751 44.9443C337.736 48.2829 338.154 51.6091 338.994 54.839C339.614 58.0868 341.22 61.0616 343.593 63.3534C346.283 65.8671 349.117 66.3901 351.995 64.8064C352.513 64.5562 352.998 64.244 353.441 63.8765C353.702 63.6731 354.092 63.4842 354.352 63.2808H354.555C354.862 63.0023 355.255 62.8382 355.668 62.8158C355.798 62.7992 355.93 62.8204 356.048 62.8771C356.166 62.9338 356.265 63.0235 356.334 63.1355C356.435 63.622 356.39 64.1279 356.204 64.5885L356.131 64.7192C355.86 65.7155 355.507 66.6875 355.076 67.6251C353.842 70.3445 352.939 73.2032 352.386 76.1395C351.877 78.2999 351.765 80.5351 352.053 82.736C352.776 86.3103 354.627 88.4752 357.577 89.2017C358.831 89.476 360.114 89.5883 361.395 89.5359H362.494C363.658 89.5598 364.795 89.1858 365.719 88.4752C367.353 87.2257 367.758 83.9274 366.5 81.6899C366.24 81.2135 365.873 80.8042 365.429 80.4942C364.985 80.1841 364.475 79.9816 363.94 79.9027L363.68 79.7719C362.878 79.6397 362.152 79.2156 361.641 78.5805C360.909 77.602 360.436 76.4537 360.264 75.242C360.092 74.0304 360.227 72.7948 360.658 71.6499C361.381 69.8046 362.104 67.9593 362.957 66.1722M438.503 41.9512C438.503 39.365 438.503 36.6043 438.503 33.9599C438.503 31.3155 436.985 29.601 434.758 29.601H434.628C432.459 29.601 431.143 30.9814 430.752 33.6258C430.614 34.6319 430.546 35.6467 430.55 36.6624V37.5488C430.55 41.6316 430.55 45.8597 430.55 50.0152C430.55 54.7664 428.25 58.8057 424.765 59.8518C424.233 60.0363 423.678 60.1487 423.116 60.186C422.654 60.1813 422.202 60.0414 421.817 59.7834C421.432 59.5255 421.13 59.1605 420.947 58.733C420.507 57.9363 420.217 57.0642 420.094 56.1612C419.834 54.1852 419.646 51.6716 419.573 49.158C419.573 46.252 419.573 43.1572 419.573 40.4402V34.3086C419.623 33.6519 419.517 32.9928 419.266 32.3845C419.015 31.7762 418.625 31.2358 418.127 30.807C417.485 30.2831 416.719 29.9343 415.903 29.7943C415.088 29.6544 414.25 29.7279 413.471 30.0079C411.764 30.6762 411.374 32.9138 411.374 34.6283C411.374 40.3094 411.374 46.4409 411.374 53.5169C411.375 56.393 412.248 59.2005 413.876 61.5663C415.842 64.3414 417.881 65.591 420.109 65.591H420.701C422.385 65.3926 424.04 64.9976 425.633 64.4141C426.74 64.0063 427.818 63.5208 428.858 62.9611L430.232 62.162H430.362L430.564 62.2928C430.655 62.4347 430.719 62.5924 430.752 62.7577C430.97 63.0639 431.15 63.3957 431.287 63.7457C431.606 64.3525 432.09 64.8553 432.683 65.1951C433.276 65.535 433.953 65.6976 434.635 65.6641C435.317 65.6305 435.975 65.4021 436.532 65.0056C437.09 64.6092 437.522 64.0612 437.78 63.4261C438.35 62.14 438.599 60.7333 438.503 59.3287V42.0384V41.9512ZM289.175 29.2669C288.11 29.1251 287.038 29.0378 285.964 29.0053C283.865 28.9546 281.8 29.5531 280.05 30.7198C278.271 31.9839 276.564 33.2334 274.728 34.6864C274.266 35.0841 273.866 35.5494 273.542 36.0667C273.241 36.5014 273.073 37.0155 273.06 37.5451C273.048 38.0747 273.19 38.5963 273.47 39.0453C273.933 39.8299 274.598 39.8299 275.451 39.365C276.548 38.7129 277.601 37.9897 278.604 37.2C279.123 36.8505 279.607 36.4515 280.05 36.0086C280.715 35.5437 281.293 35.0206 281.886 34.5557C282.833 33.8289 283.992 33.4357 285.183 33.4369C285.47 33.4254 285.756 33.4499 286.037 33.5095C286.976 33.6784 287.821 34.187 288.413 34.9392C289.004 35.6914 289.301 36.6352 289.247 37.5923C289.284 38.2747 289.284 38.9586 289.247 39.641V41.094C289.28 41.2793 289.273 41.4693 289.228 41.6519C289.184 41.8346 289.101 42.0058 288.987 42.1547C288.746 42.356 288.447 42.4732 288.134 42.4888H286.876H283.795C283.173 42.4957 282.553 42.5638 281.944 42.6922C279.469 43.427 277.2 44.736 275.321 46.5136C273.078 48.3833 271.45 50.8902 270.65 53.7057C270.234 55.1208 270.191 56.6201 270.526 58.0566C270.861 59.4932 271.561 60.8178 272.559 61.9005C274.023 63.3864 275.762 64.5709 277.678 65.3876C278.728 65.8881 279.887 66.1146 281.047 66.046C282.207 65.9774 283.331 65.616 284.316 64.9953L287.468 63.0192L289.045 62.0312H289.175L289.377 62.162V62.2928C289.474 62.3835 289.544 62.499 289.58 62.6269C290.505 64.7337 291.416 65.5329 293.123 65.5329C293.697 65.5231 294.269 65.455 294.829 65.3295C295.295 65.2054 295.714 64.944 296.031 64.5789C296.348 64.2138 296.549 63.7617 296.608 63.2808C296.828 62.3265 296.959 61.3536 296.999 60.3749V39.0889C297.031 36.5788 296.116 34.1495 294.439 32.289C293.024 30.6986 291.091 29.6681 288.987 29.3831M288.987 55.1297C288.446 56.4096 287.578 57.5232 286.47 58.3576C285.363 59.1919 284.056 59.7174 282.682 59.8808C282.191 59.8558 281.705 59.7679 281.236 59.6193C279.98 59.0113 278.981 57.9743 278.416 56.6939C277.852 55.4135 277.76 53.9732 278.155 52.6305C278.357 51.8522 278.794 51.1554 279.404 50.6354C280.015 50.1153 280.771 49.7973 281.568 49.7246C282.751 49.6193 283.938 49.5757 285.126 49.5938H288.018C288.293 49.5938 288.611 49.5938 288.871 49.5938C289.005 49.6175 289.142 49.6175 289.276 49.5938C289.311 49.5917 289.346 49.597 289.378 49.6094C289.411 49.6218 289.44 49.641 289.465 49.6657C289.489 49.6905 289.508 49.7201 289.521 49.7528C289.533 49.7855 289.538 49.8205 289.536 49.8554V51.3083C289.667 52.6008 289.509 53.9064 289.074 55.1297M392.863 29.9207C391.074 29.9281 389.315 30.3825 387.744 31.2429C387.021 31.6352 386.428 32.1001 385.835 32.4198L385.184 32.8847C384.977 32.9847 384.748 33.0297 384.519 33.0155C384.324 32.9853 384.141 32.9014 383.99 32.7732C383.84 32.645 383.727 32.4774 383.666 32.289C383.323 31.5027 382.764 30.831 382.054 30.3523C381.345 29.8737 380.514 29.6081 379.66 29.5865C378.571 29.6083 377.533 30.0567 376.768 30.8361C375.767 32.1048 375.295 33.7144 375.452 35.3257V48.199C375.452 60.0116 375.452 71.8388 375.452 83.7095C375.418 84.6852 375.506 85.6614 375.712 86.6154C375.771 87.629 376.198 88.5856 376.912 89.3035C377.627 90.0214 378.579 90.4505 379.588 90.5094H379.848C380.778 90.5085 381.677 90.1767 382.387 89.573C383.096 88.9692 383.57 88.1324 383.724 87.2111C383.908 86.0533 383.995 84.882 383.984 83.7095C383.984 79.0891 383.984 74.5267 383.984 69.979V64.8936C383.996 64.8371 384.02 64.784 384.055 64.7384C384.091 64.6929 384.136 64.6561 384.188 64.6308C384.239 64.6056 384.296 64.5925 384.353 64.5928C384.411 64.593 384.467 64.6064 384.519 64.632C384.649 64.632 384.707 64.7628 384.779 64.7628V64.8355C385.86 65.6198 387.124 66.1108 388.449 66.261C389.774 66.4112 391.115 66.2154 392.343 65.6927C395.305 64.6318 397.966 62.8614 400.094 60.5347C401.938 58.7277 403.292 56.477 404.027 53.9963C405.346 49.0951 405.21 43.9137 403.637 39.0889C401.8 33.4078 397.592 29.848 392.733 29.848M397.071 47.734C397.195 50.856 396.703 53.9717 395.625 56.9023C395.17 58.1406 394.371 59.2217 393.323 60.0175C392.274 60.8133 391.021 61.2903 389.711 61.3919C389.151 61.3839 388.598 61.2757 388.076 61.0723C386.428 60.3458 385.314 58.8202 384.461 56.3065C383.35 52.634 382.924 48.787 383.203 44.9589C383.203 44.1743 383.405 43.5059 383.536 42.7213V42.6487C383.712 40.814 384.451 39.0797 385.651 37.6848C386.85 36.2899 388.45 35.3032 390.231 34.8608C390.515 34.8254 390.801 34.8254 391.084 34.8608C392.115 34.943 393.098 35.3327 393.907 35.9798C394.716 36.627 395.315 37.5022 395.625 38.4932C396.644 41.0557 397.136 43.7987 397.071 46.5571C397.143 46.8137 397.143 47.0852 397.071 47.3418V47.734ZM220.845 29.3831C219.601 29.2523 218.545 29.1215 217.62 29.1215C215.522 29.0855 213.461 29.6828 211.705 30.8361C209.941 32.1001 208.292 33.3497 206.456 34.8027C205.978 35.2012 205.559 35.666 205.212 36.183C204.944 36.6333 204.803 37.1479 204.803 37.6723C204.803 38.1967 204.944 38.7113 205.212 39.1615C205.732 39.9462 206.325 39.9462 207.179 39.4812C208.288 38.85 209.343 38.1258 210.331 37.3163C210.866 36.9094 211.459 36.5172 211.922 36.1249C212.385 35.7326 213.093 35.1368 213.759 34.6719C214.691 33.9278 215.851 33.5323 217.041 33.5531C217.285 33.5412 217.528 33.5657 217.764 33.6258C218.719 33.7864 219.584 34.2878 220.201 35.0379C220.817 35.7879 221.143 36.7362 221.119 37.7086C221.119 38.4351 221.119 39.1616 221.119 39.8299V41.2102C221.144 41.5931 221.025 41.9713 220.787 42.2709C220.675 42.3827 220.542 42.4701 220.395 42.5276C220.248 42.5851 220.091 42.6115 219.934 42.6051H218.618H215.725C215.108 42.6048 214.492 42.673 213.889 42.8085C211.381 43.5271 209.08 44.8372 207.179 46.6298C204.96 48.518 203.341 51.0186 202.522 53.822C202.103 55.2367 202.059 56.7367 202.394 58.1739C202.729 59.611 203.431 60.9355 204.431 62.0167C205.929 63.4956 207.69 64.6785 209.623 65.5038C210.67 66.0031 211.827 66.2288 212.984 66.1603C214.142 66.0917 215.264 65.731 216.246 65.1115C217.244 64.4577 218.357 63.7893 219.471 63.1355C219.934 62.8013 220.454 62.4816 220.917 62.1475H221.119L221.25 62.2782L221.38 62.409C221.38 62.4817 221.38 62.6124 221.38 62.7432C222.363 64.85 223.289 65.6491 224.995 65.6491C225.593 65.632 226.188 65.5639 226.774 65.4457C227.232 65.3091 227.642 65.0436 227.954 64.6806C228.267 64.3175 228.469 63.8721 228.538 63.397C228.746 62.4421 228.857 61.4685 228.871 60.4911C228.871 55.4638 228.871 50.5238 228.871 45.6418V38.9C228.91 36.3752 227.966 33.9349 226.239 32.1001C224.824 30.5097 222.891 29.4792 220.787 29.1942M220.787 54.9408C220.26 56.2303 219.396 57.3528 218.286 58.1892C217.176 59.0256 215.861 59.5448 214.482 59.692C213.966 59.6799 213.454 59.5917 212.963 59.4304C211.727 58.8004 210.745 57.7608 210.184 56.4873C209.623 55.2139 209.516 53.7848 209.883 52.4417C210.097 51.6565 210.546 50.9565 211.17 50.4366C211.793 49.9168 212.561 49.6023 213.368 49.5357C214.546 49.4279 215.729 49.3843 216.911 49.405H219.803C220.136 49.405 220.396 49.405 220.657 49.405C220.81 49.4334 220.966 49.4334 221.119 49.405C221.25 49.405 221.322 49.5357 221.322 49.6665V51.1195C221.426 52.4115 221.268 53.7114 220.859 54.9408M191.69 50.6545C191.228 50.1314 190.837 49.5938 190.374 49.0708C189.912 48.5477 189.651 48.2135 189.261 47.8212L188.856 47.3563C188.856 47.2255 188.856 47.1529 188.856 47.0948C189.319 46.3683 189.782 45.6418 190.302 45.0461C191.358 43.5931 192.341 42.1401 193.325 40.6872C194.728 38.5012 195.809 36.1227 196.535 33.6258C196.796 33.047 196.861 32.3983 196.72 31.779C196.579 31.1597 196.239 30.604 195.754 30.1968C195.02 29.557 194.093 29.1834 193.122 29.1361C192.621 29.1553 192.132 29.2979 191.698 29.5512C191.265 29.8045 190.899 30.1609 190.635 30.5891C189.637 32.042 188.654 33.6257 187.742 35.2095L187.612 35.3984C186.759 36.8513 185.964 38.3043 185.111 39.7573C184.778 40.4256 184.387 41.0795 184.055 41.7333C184.027 41.777 183.988 41.8131 183.943 41.8384C183.897 41.8638 183.846 41.8775 183.795 41.8786C183.795 41.8786 183.664 41.8786 183.664 41.7333C183.258 41.2776 182.885 40.7919 182.551 40.2803C181.828 39.147 181.105 38.159 180.382 37.0983C179.659 36.0377 178.935 34.5992 178.285 33.4078C177.88 32.6232 177.489 31.9548 177.099 31.0976C176.81 30.4837 176.354 29.9649 175.783 29.6021C175.212 29.2393 174.55 29.0474 173.874 29.0489H173.281C172.877 29.0924 172.487 29.221 172.135 29.4263C171.784 29.6316 171.48 29.909 171.242 30.2403C170.982 30.7224 170.83 31.2558 170.798 31.8031C170.766 32.3504 170.853 32.8981 171.054 33.4078C171.758 35.8043 172.868 38.0606 174.337 40.0769C175.392 41.5299 176.434 42.8521 177.619 44.305C178.082 44.9589 178.603 45.5546 179.066 46.2084C179.066 46.3392 179.066 46.4118 179.066 46.4845C178.966 46.643 178.833 46.7771 178.675 46.8768C178.545 47.1383 178.343 47.3417 178.212 47.6033C177.695 48.2148 177.212 48.8552 176.766 49.5212C175.45 51.2357 174.076 53.0083 172.818 54.7955C171.502 56.6308 170.523 58.6876 169.926 60.8689C169.391 62.7141 169.651 64.2397 170.837 64.9662C171.448 65.4243 172.186 65.6783 172.948 65.6927C173.726 65.668 174.482 65.4338 175.139 65.0146C175.795 64.5954 176.327 64.0066 176.68 63.3098L177.735 61.3919L178.126 60.6073C179.409 57.94 181.097 55.4892 183.129 53.3425C184.113 52.2237 184.966 51.8895 186.022 53.3425C187.361 55.0202 188.593 56.7818 189.709 58.6168C190.288 59.6193 190.823 60.6654 191.343 61.6535C191.643 62.4044 191.996 63.1327 192.399 63.8329C192.617 64.3734 192.988 64.8378 193.466 65.1684C193.944 65.499 194.509 65.6813 195.089 65.6927C195.827 65.6766 196.549 65.4716 197.186 65.097C197.484 64.9163 197.72 64.6481 197.862 64.3287C198.005 64.0092 198.046 63.6537 197.981 63.3098C197.689 60.9081 196.954 58.5822 195.812 56.4518C194.676 54.3911 193.287 52.4824 191.676 50.7708M263.81 62.2492C263.751 61.7667 263.751 61.2787 263.81 60.7962V39.0017L263.737 34.977C263.825 33.6727 263.55 32.3696 262.942 31.2138C262.588 30.5797 262.074 30.05 261.452 29.6778C260.831 29.3055 260.123 29.1037 259.399 29.0925C258.865 29.1157 258.336 29.2035 257.823 29.354C256.188 30.0805 255.321 31.6642 255.321 34.2505V44.4213C255.384 45.8617 255.137 47.2988 254.598 48.6349C254.056 49.8453 253.241 50.9118 252.216 51.7493C251.192 52.5869 249.987 53.1722 248.697 53.4587C247.892 53.601 247.063 53.4374 246.37 52.9997C245.678 52.562 245.173 51.8816 244.952 51.0904C244.33 49.445 244.04 47.6916 244.099 45.9324V41.9803C244.099 40.2658 244.099 39.394 244.026 35.7035C244.023 34.4121 243.847 33.1271 243.506 31.8822C243.299 31.0691 242.834 30.3458 242.182 29.8216C241.53 29.2973 240.725 29.0006 239.89 28.9763C239.386 28.953 238.884 29.0628 238.435 29.2947C237.986 29.5267 237.605 29.8727 237.331 30.2984C236.677 31.3928 236.355 32.6553 236.405 33.9309C236.477 34.4563 236.477 34.9892 236.405 35.5146V35.6454C236.453 36.1285 236.453 36.6152 236.405 37.0983V40.135C236.405 42.3871 236.405 44.6247 236.405 46.8768C236.388 49.8972 237.308 52.8479 239.037 55.3185C240.411 57.1057 242.248 59.2125 245.01 58.9509C248.123 58.7078 251.117 57.6399 253.687 55.8561C254.104 55.5016 254.6 55.2525 255.133 55.1297C255.783 55.1297 255.783 55.7835 255.783 57.1057V62.2492C255.856 66.2012 256.116 67.0585 256.579 68.2499C256.998 69.245 257.704 70.091 258.606 70.679C259.508 71.2669 260.565 71.5696 261.64 71.5481C262.739 71.5871 263.82 71.2659 264.721 70.6328C266.499 69.4414 265.704 67.3927 264.851 65.2132C264.382 64.2525 264.051 63.2302 263.867 62.1765" fill="white"/>
<path d="M279.774 94.9405C279.833 96.2513 279.422 97.5399 278.617 98.5729C278.394 98.8818 278.096 99.129 277.753 99.2916C277.409 99.4541 277.03 99.5268 276.65 99.5028C276.031 99.4724 275.427 99.2945 274.889 98.9838C274.351 98.6731 273.894 98.2385 273.556 97.7157C273.11 96.8571 272.863 95.9085 272.833 94.9405C272.764 94.178 272.906 93.4112 273.243 92.7243C273.58 92.0375 274.098 91.457 274.742 91.0466V92.0346C274.742 92.8337 275.595 93.0953 275.927 93.0953C276.173 93.1172 276.421 93.0903 276.657 93.016C276.892 92.9417 277.111 92.8216 277.3 92.6624C277.49 92.5031 277.646 92.308 277.76 92.0881C277.874 91.8682 277.945 91.6279 277.966 91.3808C278.572 91.7616 279.063 92.3009 279.386 92.9409C279.71 93.5808 279.854 94.2972 279.803 95.0132M269.81 95.4055C269.808 96.4356 269.964 97.4599 270.273 98.4422C270.657 99.5945 271.404 100.59 272.4 101.279C273.396 101.969 274.589 102.314 275.797 102.263C277.106 102.314 278.403 101.997 279.543 101.348C280.668 100.548 281.572 99.4735 282.169 98.2252C282.766 96.977 283.037 95.5965 282.956 94.214C283.088 92.7237 282.643 91.2394 281.714 90.0702C280.785 88.9011 279.442 88.137 277.966 87.9372V87.603C277.966 86.7458 277.171 86.615 276.781 86.615C276.307 86.5851 275.839 86.7294 275.464 87.0208C275.089 87.3123 274.832 87.731 274.742 88.1988C273.249 88.6703 271.954 89.6269 271.061 90.9183C270.169 92.2098 269.729 93.7627 269.81 95.3328M253.527 91.1047V96.3935C253.527 97.9772 253.396 99.561 253.396 101.145C253.405 101.297 253.445 101.446 253.513 101.582C253.581 101.719 253.677 101.84 253.793 101.938C253.91 102.036 254.045 102.109 254.191 102.152C254.336 102.196 254.489 102.209 254.64 102.191C255.363 102.191 256.419 101.74 256.419 100.738C256.528 99.7101 256.571 98.6764 256.549 97.6431C256.908 97.1299 257.304 96.6442 257.735 96.1901C258.125 96.3209 258.588 96.5243 259.181 96.655C259.181 96.7858 259.644 97.5123 259.962 97.9772C260.404 98.6833 260.887 99.3626 261.408 100.011C261.931 100.921 262.764 101.609 263.752 101.951C264.741 102.293 265.818 102.264 266.788 101.871C267.101 101.774 267.377 101.582 267.579 101.322C267.78 101.063 267.898 100.747 267.916 100.418C267.922 100.268 267.897 100.118 267.842 99.9773C267.788 99.8371 267.705 99.7097 267.599 99.6032C267.493 99.4967 267.366 99.4134 267.227 99.3586C267.087 99.3038 266.938 99.2788 266.788 99.2849C266.427 99.3151 266.075 99.4085 265.746 99.561C264.488 99.561 263.447 97.3815 262.464 95.9285C261.844 95.0723 260.997 94.4079 260.02 94.0106C260.999 92.9608 262.058 91.9892 263.187 91.1047C263.187 91.2355 263.042 91.3081 263.042 91.4389C263.064 91.719 263.195 91.9793 263.406 92.1639C263.617 92.3486 263.891 92.443 264.17 92.4269C264.601 92.4282 265.023 92.304 265.385 92.0694C265.747 91.8347 266.033 91.4996 266.209 91.1047C266.209 90.7124 266.339 90.3782 266.339 90.1167C266.35 89.8277 266.3 89.5398 266.195 89.2708C266.089 89.0018 265.93 88.7575 265.727 88.553C265.523 88.3486 265.28 88.1884 265.012 88.0825C264.744 87.9765 264.458 87.9271 264.17 87.9372C262.854 87.9372 261.741 89.056 260.887 89.6517C259.39 90.9157 257.984 92.2849 256.679 93.7491V89.6517C256.679 87.6757 256.679 85.7578 256.809 83.8399C256.809 83.5852 256.725 83.3379 256.571 83.1357C256.417 82.9336 256.201 82.7879 255.956 82.7211C255.574 82.5903 255.174 82.5216 254.77 82.5177C254.25 82.5177 254.047 82.5903 253.657 82.5903C253.206 82.6188 252.781 82.8066 252.455 83.1204C252.129 83.4343 251.925 83.8539 251.878 84.3048C251.9 84.5721 252.02 84.8217 252.215 85.0044C252.411 85.1872 252.667 85.2901 252.934 85.2928H253.657L253.527 91.1047ZM247.149 99.561V96.3935C247.149 94.0106 247.409 91.5697 247.409 89.1287C247.41 88.9844 247.381 88.8415 247.324 88.7089C247.267 88.5763 247.184 88.4566 247.08 88.3573C246.976 88.258 246.853 88.1812 246.718 88.1314C246.583 88.0817 246.439 88.0601 246.296 88.068C245.953 88.0583 245.613 88.131 245.303 88.2801C244.994 88.4292 244.724 88.6504 244.517 88.9253C242.493 91.5697 240.511 94.2141 238.472 96.9166C238.617 95.2021 238.747 93.2842 238.747 91.3081C238.877 91.2355 238.877 90.7124 238.877 90.2475C238.91 89.9401 238.879 89.6292 238.787 89.3343C238.695 89.0393 238.544 88.7665 238.342 88.5329C237.839 88.1493 237.204 87.9821 236.578 88.068C235.985 88.068 235.32 88.1988 235.132 88.1988H235.002C234.552 88.2222 234.123 88.399 233.786 88.7002C233.45 89.0013 233.226 89.4087 233.15 89.8552C233.154 89.9966 233.186 90.1359 233.246 90.2641C233.305 90.3922 233.391 90.5064 233.497 90.5994C233.604 90.6924 233.728 90.7621 233.862 90.8041C233.997 90.8461 234.139 90.8594 234.279 90.8432H235.725V91.5696C235.725 92.2961 235.594 93.0226 235.594 93.6183C235.594 95.2021 235.32 97.0473 235.32 98.7037C235.275 99.6133 235.367 100.525 235.594 101.406C235.594 102.002 236.173 102.191 236.708 102.191C237.106 102.203 237.498 102.098 237.838 101.889C238.177 101.68 238.448 101.376 238.617 101.014C240.381 98.7037 242.218 96.1901 243.997 93.7491V99.561C244.127 102.002 245.24 102.467 247.019 102.467H247.872C248.33 102.417 248.759 102.216 249.092 101.896C249.424 101.575 249.641 101.152 249.709 100.694C249.708 100.553 249.677 100.414 249.619 100.286C249.561 100.158 249.477 100.044 249.371 99.9506C249.266 99.8574 249.143 99.7874 249.009 99.7453C248.876 99.7033 248.734 99.6899 248.595 99.7063H247.742C247.578 99.7098 247.417 99.6643 247.279 99.5755L247.149 99.561ZM221.524 99.096V98.7037C221.511 96.6191 221.823 94.5453 222.449 92.5577C222.586 92.0902 222.873 91.6814 223.265 91.395C223.658 91.1085 224.133 90.9605 224.618 90.9739C225.318 90.9846 225.988 91.2649 226.488 91.7569C226.989 92.249 227.282 92.9153 227.308 93.6183C227.321 93.8252 227.276 94.0317 227.178 94.214C226.585 96.9166 224.416 98.5003 221.524 99.096ZM218.371 98.9653C218.406 101.736 218.692 104.499 219.224 107.218C219.296 107.479 219.451 107.71 219.665 107.875C219.879 108.04 220.14 108.131 220.41 108.133C220.906 108.135 221.385 107.956 221.76 107.631C222.134 107.305 222.379 106.854 222.449 106.361V106.085C222.089 104.61 221.847 103.109 221.726 101.595C223.533 101.303 225.241 100.567 226.697 99.4511C228.153 98.3358 229.312 96.8761 230.07 95.2021C230.317 94.384 230.472 93.541 230.533 92.6884C230.571 92.0717 230.478 91.4539 230.261 90.876C230.043 90.2981 229.705 89.7733 229.271 89.3363C228.836 88.8994 228.313 88.5604 227.738 88.3417C227.163 88.123 226.548 88.0297 225.934 88.068C219.817 88.068 218.371 93.7491 218.371 98.9653ZM205.963 96.1901C206.991 95.222 208.307 94.6197 209.708 94.4756C209.969 95.386 210.167 96.3132 210.301 97.2507C209.749 97.5433 209.218 97.8734 208.711 98.2388C208.103 98.5755 207.47 98.8621 206.816 99.096C206.158 99.333 205.473 99.4891 204.777 99.561H204.647V99.2268C204.894 98.1413 205.341 97.1116 205.963 96.1901ZM208.711 92.2961C207.181 92.7257 205.721 93.3715 204.372 94.214C202.773 95.6608 201.785 97.6673 201.61 99.8225C201.61 101.595 202.796 102.191 204.17 102.191C205.109 102.197 206.043 102.044 206.932 101.74C208.31 101.307 209.631 100.707 210.865 99.9533C210.881 100.407 210.974 100.854 211.14 101.275C211.401 102.322 212.716 102.133 213.44 102.133C213.906 102.117 214.351 101.936 214.698 101.622C215.044 101.309 215.27 100.882 215.334 100.418C215.334 99.561 214.351 99.4302 213.888 99.4302C213.401 96.5983 212.675 93.8132 211.719 91.1047C211.502 90.215 210.999 89.4221 210.288 88.8493C209.576 88.2765 208.697 87.9558 207.785 87.9372C207.111 87.9464 206.445 88.0793 205.818 88.3295C205.489 88.4063 205.194 88.5905 204.979 88.8533C204.765 89.1161 204.643 89.4428 204.633 89.7825C204.633 90.0985 204.758 90.4015 204.98 90.625C205.202 90.8484 205.504 90.9739 205.818 90.9739C206.199 90.9335 206.573 90.8456 206.932 90.7124C207.525 90.7124 208.118 91.2355 208.696 92.2961M201.466 100.418C201.468 100.264 201.438 100.11 201.379 99.9681C201.319 99.8256 201.231 99.6972 201.12 99.5907C201.008 99.4842 200.876 99.4021 200.731 99.3495C200.587 99.2968 200.433 99.2749 200.28 99.2849C199.817 99.2849 199.296 99.4302 198.834 99.4302H198.703C198.11 97.9772 195.551 89.9859 192.326 80.6724C192.259 80.4627 192.128 80.2797 191.951 80.1492C191.775 80.0188 191.562 79.9476 191.343 79.9459C190.826 79.9516 190.329 80.1517 189.952 80.5067C189.575 80.8617 189.343 81.3459 189.303 81.8638V82.2561C189.458 82.5323 189.593 82.8187 189.708 83.1134V83.2441C188.262 87.603 187.539 91.5696 185.688 95.5944C184.694 92.0301 183.442 88.5434 181.943 85.1621C180.771 82.7211 179.643 79.6844 176.896 79.6844C176.03 79.7972 175.186 80.0422 174.394 80.4109C174.076 80.5746 173.806 80.8189 173.61 81.1196C173.415 81.4203 173.301 81.7669 173.28 82.1254C173.288 82.4198 173.407 82.7001 173.614 82.9083C173.822 83.1165 174.101 83.2368 174.394 83.2441C174.688 83.1918 174.974 83.104 175.247 82.9826C175.469 82.7962 175.754 82.7026 176.042 82.7211C176.693 82.7211 177.156 83.3168 178.009 84.4356C178.009 84.4703 177.995 84.5035 177.971 84.528C177.947 84.5526 177.914 84.5664 177.879 84.5664C175.71 89.7825 175.117 96.3935 171.632 100.287C171.371 100.68 171.111 100.869 171.111 101.275C171.111 102.133 172.094 102.191 172.427 102.191C172.729 102.206 173.029 102.148 173.303 102.021C173.578 101.895 173.818 101.704 174.003 101.464C177.416 97.7738 178.212 92.4269 179.788 87.6757C180.308 88.9253 180.771 90.1167 181.032 90.8432C182.087 94.1414 182.478 96.5243 183.794 99.561C183.785 99.6655 183.797 99.7709 183.829 99.8707C183.861 99.9705 183.913 100.063 183.982 100.142C184.112 100.418 184.647 100.549 184.965 100.549C185.263 100.543 185.557 100.476 185.829 100.351C186.1 100.226 186.342 100.046 186.541 99.8225C186.668 99.7059 186.779 99.5741 186.874 99.4302C188.729 95.6374 190.226 91.6775 191.343 87.603C192.919 92.4269 194.105 96.7858 195.811 101.595C196.202 102.452 197.257 102.191 197.518 102.191H199.557C200.034 102.176 200.49 101.989 200.841 101.663C201.192 101.337 201.413 100.895 201.466 100.418Z" fill="white"/>
</svg>
