<svg width="88" height="88" viewBox="0 0 88 88" fill="none" xmlns="http://www.w3.org/2000/svg">
<path fill-rule="evenodd" clip-rule="evenodd" d="M17.2109 49.9859C7.6536 47.8995 3.55273 45.7488 0.7109 38.4859C-0.126487 34.715 -0.341205 32.3889 0.7109 26.9859C2.65814 21.0056 4.96431 18.705 10.7522 17.7475C12.0495 17.533 13.3734 17.5122 14.6829 17.6312C23.5845 18.4401 27.1363 21.039 31.7109 26.9859C29.9851 21.2693 29.3526 17.5952 30.5698 12.6425C31.1765 10.1738 32.3775 7.85714 34.1409 6.0261C35.714 4.39275 37.5468 3.0946 40.7109 1.48588C45.571 -0.399943 48.2093 -0.588404 52.7109 1.48588C58.0451 5.07638 59.6746 7.45099 61.2109 11.9859C62.8507 19.9985 61.3585 23.647 58.2109 29.9859C65.4756 25.7167 69.4624 25.4709 75.2109 26.9859C84.0693 30.4384 86.8246 33.6738 87.2109 41.4859C86.8591 50.799 84.5014 54.4301 76.2109 57.9859C70.6527 59.0022 67.7129 58.7032 62.7109 56.9859C65.5311 60.3827 67.0771 62.723 68.3136 66.1407C68.9873 68.0029 69.2578 69.9898 69.1854 71.9688C68.984 77.4658 67.7923 80.8743 63.8655 84.0912C62.1916 85.4625 60.1706 86.3484 58.0676 86.8579C53.5752 87.946 50.3396 87.8547 46.6107 85.5918C44.576 84.357 42.9652 82.5327 41.7146 80.5077C39.4208 76.7936 38.3862 73.7685 37.2109 68.9859C35.151 72.5891 33.7032 75.011 31.1138 77.5601C28.9993 79.6417 26.269 80.9991 23.3739 81.6486C18.7735 82.6807 15.2307 82.5242 10.8027 79.4977C9.0084 78.2713 7.61115 76.5481 6.60341 74.6225C4.30202 70.225 3.94517 67.7144 4.7109 64.4859C7.3335 56.9162 10.0834 53.7857 17.2109 49.9859ZM52.7109 46.4859C52.7109 40.6869 48.0099 35.9859 42.2109 35.9859H41.4877C35.3941 35.9859 30.5802 41.1559 31.0143 47.234C31.4068 52.7287 35.9789 56.9859 41.4877 56.9859H42.2109C48.0099 56.9859 52.7109 52.2849 52.7109 46.4859Z" fill="#940000"/>
</svg>
