<svg width="282" height="174" viewBox="0 0 282 174" fill="none" xmlns="http://www.w3.org/2000/svg">
<path fill-rule="evenodd" clip-rule="evenodd" d="M281.336 137.225C278.31 149.138 266.306 151.246 235.826 149.913C233.209 149.799 230.529 150.298 228.119 151.322C119.342 197.572 79.1824 169.403 27.3624 75.9887C26.3628 74.1868 25.0238 72.5369 23.4624 71.1924C4.28082 54.6747 -2.54053 46.2647 0.823942 34.7285C3.22509 24.1645 17.5584 23.8517 42.2287 23.2956C44.2791 23.2494 46.3431 22.8157 48.2474 22.0538C140.382 -14.8103 189.5 -15.2442 253.692 97.9137C255.085 100.368 257.1 102.513 259.454 104.068C279.96 117.616 283.744 125.111 281.336 137.225ZM124.824 133.729C94.885 121.552 81.5787 102.643 60.8242 58.7285C107.5 35.5568 129.777 29.8289 158.324 40.2285C184.521 51.4396 198.849 73.605 224.324 116.729C178.348 135.486 155.793 140.483 124.824 133.729Z" fill="#940000"/>
<path d="M131.714 55.2616C107.772 55.4813 95.7832 78.0747 110.295 97.1187C110.647 97.5804 110.997 98.0407 111.343 98.4994C120.074 110.051 133.959 117.591 148.423 116.903C169.541 115.898 181.261 94.8538 170.568 76.6144L168.068 72.3486C162.012 62.0196 151.033 55.57 139.063 55.3098L135.324 55.2285L131.714 55.2616Z" fill="#940000"/>
</svg>
