<svg width="170" height="148" viewBox="0 0 170 148" fill="none" xmlns="http://www.w3.org/2000/svg">
<path fill-rule="evenodd" clip-rule="evenodd" d="M68.5945 4.23752C84.0598 -3.1186 95.5159 0.219275 107.932 5.79987C110.373 6.89691 112.796 8.57161 113.005 11.2394C113.248 14.3319 112.275 18.9315 110.262 26.0564C109.522 28.675 108.924 31.4271 109.6 34.063C114.339 52.5438 152.673 60.9365 162.62 78.9998C171.421 94.9815 171.728 102.737 166.565 115.037C164.171 120.741 160.615 125.978 155.844 129.916C144.984 138.879 134.493 140.539 114.62 137C85.8766 151.375 70.8919 150.755 45.6201 137C27.4556 139.247 18.6695 136.728 8.61507 126.669C6.56921 124.622 4.89093 122.218 3.68732 119.586C-2.59408 105.851 -1.02108 96.6051 9.72364 82.622C11.5968 80.1842 13.8925 78.0874 16.3852 76.288C48.4924 53.1115 63.2576 40.9865 62.6201 29.9998C62.0453 23.4589 61.4448 18.4034 61.5508 14.1902C61.6616 9.79292 64.6223 6.1269 68.5945 4.23752ZM73.1218 32.4867C65.2636 56.4933 39.663 95.3849 46.1218 90.4867C57.948 81.5181 73.999 50.658 73.1218 32.4867ZM83.6223 82.9867C83.6236 79.9867 84.1253 52.0123 86.1223 32.4867C93.2867 66.1206 87.8491 88.7693 86.3321 90.4073C86.2206 90.5277 86.0814 90.4133 86.0047 90.2683C85.5096 89.3328 83.6212 85.5935 83.6223 82.9867ZM124.622 86.4867C103.929 65.2221 96.7171 26.9836 98.1223 32.4867C98.6102 34.3973 100.878 39.1794 103.67 44.4696C107.795 52.2856 124.226 77.6579 124.622 86.4867Z" fill="#940000"/>
</svg>
