<svg width="138" height="209" viewBox="0 0 138 209" fill="none" xmlns="http://www.w3.org/2000/svg">
<path d="M42 115.422C42 126.191 33.2696 134.922 22.5 134.922C11.7304 134.922 3 126.191 3 115.422C3 104.652 11.7304 95.9219 22.5 95.9219C33.2696 95.9219 42 104.652 42 115.422Z" fill="#940000"/>
<path d="M48 152.422C48 163.191 39.2696 171.922 28.5 171.922C17.7304 171.922 9 163.191 9 152.422C9 141.652 17.7304 132.922 28.5 132.922C39.2696 132.922 48 141.652 48 152.422Z" fill="#940000"/>
<path d="M79 130.422C79 141.191 70.2696 149.922 59.5 149.922C48.7304 149.922 40 141.191 40 130.422C40 119.652 48.7304 110.922 59.5 110.922C70.2696 110.922 79 119.652 79 130.422Z" fill="#940000"/>
<path d="M74 94.4219C74 105.191 65.2696 113.922 54.5 113.922C43.7304 113.922 35 105.191 35 94.4219C35 83.6524 43.7304 74.9219 54.5 74.9219C65.2696 74.9219 74 83.6524 74 94.4219Z" fill="#940000"/>
<path d="M39 78.4219C39 89.1915 30.2696 97.9219 19.5 97.9219C8.73045 97.9219 0 89.1915 0 78.4219C0 67.6524 8.73045 58.9219 19.5 58.9219C30.2696 58.9219 39 67.6524 39 78.4219Z" fill="#940000"/>
<path d="M68 56.4219C68 57.958 67.8224 59.4525 67.4866 60.8862C65.4681 69.5043 57.7335 75.9219 48.5 75.9219C37.7304 75.9219 29 67.1915 29 56.4219C29 45.6524 37.7304 36.9219 48.5 36.9219C56.2583 36.9219 62.9584 41.4528 66.0987 48.0128C67.3175 50.5589 68 53.4107 68 56.4219Z" fill="#940000"/>
<path d="M104 70.4219C104 81.1915 95.2696 89.9219 84.5 89.9219C73.7304 89.9219 65 81.1915 65 70.4219C65 66.9582 65.9031 63.7054 67.4866 60.8862C70.1929 56.0681 74.8866 52.5161 80.4567 51.3417C81.7611 51.0666 83.1137 50.9219 84.5 50.9219C95.2696 50.9219 104 59.6524 104 70.4219Z" fill="#940000"/>
<path d="M138 86.4219C138 97.1915 129.27 105.922 118.5 105.922C107.73 105.922 99 97.1915 99 86.4219C99 75.6524 107.73 66.9219 118.5 66.9219C129.27 66.9219 138 75.6524 138 86.4219Z" fill="#940000"/>
<path d="M109 108.422C109 119.191 100.27 127.922 89.5 127.922C78.7304 127.922 70 119.191 70 108.422C70 97.6524 78.7304 88.9219 89.5 88.9219C100.27 88.9219 109 97.6524 109 108.422Z" fill="#940000"/>
<path d="M113 144.422C113 155.191 104.27 163.922 93.5 163.922C82.7304 163.922 74 155.191 74 144.422C74 133.652 82.7304 124.922 93.5 124.922C104.27 124.922 113 133.652 113 144.422Z" fill="#940000"/>
<path d="M82 167.422C82 178.191 73.2696 186.922 62.5 186.922C51.7304 186.922 43 178.191 43 167.422C43 156.652 51.7304 147.922 62.5 147.922C73.2696 147.922 82 156.652 82 167.422Z" fill="#940000"/>
<path d="M52 189.422C52 200.191 43.2696 208.922 32.5 208.922C21.7304 208.922 13 200.191 13 189.422C13 178.652 21.7304 169.922 32.5 169.922C43.2696 169.922 52 178.652 52 189.422Z" fill="#940000"/>
<path d="M80.4567 51.3417L80.9997 50.9344C91.4395 37.5592 97.4306 29.6022 109.127 19.9546C110.301 18.9864 111.012 17.5453 110.982 16.0239C110.864 9.92758 109.916 6.63569 102 6.93438C96.8272 8.80062 91.5317 14.9198 82.1486 25.7623L81.9997 25.9344C76.1931 1.81314 68.2411 -2.74084 50.4997 1.3145C42.0989 3.42304 41.9726 7.00065 44.0082 10.0889C46.8886 14.4589 53.936 12.7764 58.7961 14.7188C59.5065 15.0027 60.2436 15.3988 60.9997 15.9344C69.1691 22.4349 70.4604 29.3455 66.0987 48.0128C67.3175 50.5589 68 53.4107 68 56.4219C68 57.958 67.8224 59.4525 67.4866 60.8862C70.1929 56.0681 74.8866 52.5161 80.4567 51.3417Z" fill="#940000"/>
</svg>
