<svg width="440" height="136" viewBox="0 0 440 136" fill="none" xmlns="http://www.w3.org/2000/svg">
<path d="M131.81 123.038C128.383 119.202 126.546 107.985 121.557 106.474C118.535 105.602 125.042 120.204 125.303 120.132C117.942 124.679 109.395 104.687 109.728 104.817C110.653 105.079 118.925 109.961 119.258 108.45C119.258 108.45 99.3443 88.6459 107.558 110.499C112.229 122.907 135.816 127.324 131.81 123.038C133.054 124.287 130.682 121.788 131.81 123.038Z" fill="white"/>
<path d="M33.676 95.316C35.8252 86.5335 36.6923 77.4837 36.2502 68.4506C35.7874 61.2584 34.2689 54.0517 33.8062 46.3365C33.8062 45.3484 34.4714 44.7527 35.3825 45.5373C40.7766 50.3612 56.9444 56.4927 56.9444 63.496C56.9444 72.8095 33.1554 97.4954 33.676 95.316Z" fill="white"/>
<path d="M28.0075 108.843C24.1318 112.403 16.1058 120.859 16.6408 126.729C16.8288 128.182 7.57353 127.993 7.11076 128.777C8.75936 125.872 24.7826 103.627 28.2678 105.806C21.2974 97.5532 -2.80976 135.839 1.19605 135.243C28.2678 131.16 28.9909 107.855 28.0075 108.843Z" fill="white"/>
<path d="M41.8032 39.5364C45.3463 38.8099 81.6734 36.0347 88.6438 36.1074C89.4247 36.1074 89.5549 36.7031 89.2367 37.0954C85.5491 41.7158 64.9271 58.4104 62.888 56.6959C61.7745 55.8386 37.7974 40.4663 41.8032 39.5364Z" fill="white"/>
<path d="M132.013 0.320657C127.024 -0.202411 113.213 2.03517 109.409 11.8718C106.85 18.6716 103.77 28.9731 104.088 28.9005C104.406 28.8278 114.341 26.3288 113.878 23.9604C113.415 21.5921 106.532 24.4835 107.052 23.6989C112.041 15.2426 115.729 6.39406 126.691 4.62145C126.04 4.75221 115.122 23.2921 115.454 23.4228C119.475 25.2826 132.808 0.451424 132.013 0.320657C133.661 0.524072 130.436 0.18989 132.013 0.320657Z" fill="white"/>
<path d="M92.854 98.4102C84.3796 96.3034 28.0668 110.368 41.9353 94.3855C48.1681 87.266 62.297 69.2346 73.6636 75.4969C78.5227 78.214 97.5828 99.6598 92.854 98.4683" fill="white"/>
<path d="M86.3452 101.258C79.1145 102.842 62.0355 109.046 53.6913 104.164C54.935 103.307 93.706 99.6164 86.3452 101.258Z" fill="white"/>
<path d="M30.3059 35.9764C35.1649 34.32 25.172 17.6836 26.1554 22.7689C26.6182 25.2099 27.7462 36.8336 30.3059 35.9764ZM15.1214 33.9277C17.4208 38.4755 26.488 37.3567 29.8431 37.4294C30.436 37.4294 30.3637 37.0952 30.1034 37.0225C19.7924 33.2594 16.6398 30.9491 11.911 19.1365C13.6174 19.7322 24.5213 22.1732 25.8373 20.1972C25.6348 20.4587 8.68604 11.8717 7.2399 12.0025C5.07069 12.1478 14.0079 31.9371 15.1214 33.9277C15.3238 34.3927 14.4706 32.8089 15.1214 33.9277Z" fill="white"/>
<path d="M95.6711 86.9903C92.8511 88.051 77.0737 65.6753 77.146 61.9848C77.4063 54.8507 93.632 44.9415 98.1729 40.1903C98.7514 39.5364 99.2864 39.7399 99.2864 40.2629C99.4166 47.4551 97.7101 55.4464 97.2474 62.5078C96.7846 70.165 98.4332 86.0023 95.6711 86.9903Z" fill="white"/>
<path d="M99.9379 83.1693C98.7521 84.2299 99.4173 44.3605 103.033 45.6682C104.146 46.075 102.498 80.5394 99.9379 83.1693Z" fill="white"/>
<path d="M326.31 30.2839C325.223 29.8075 324.042 29.5897 322.858 29.6477C321.674 29.7057 320.519 30.0378 319.484 30.618C318.24 31.1411 316.982 31.6787 315.681 32.2018L313.96 33.0009C313.83 33.0009 313.772 33.0009 313.699 32.8701C313.627 32.7394 313.512 32.4633 313.381 32.2744C313.256 31.8961 313.076 31.5386 312.846 31.2138C312.365 30.6339 311.788 30.1423 311.14 29.7608C310.752 29.6567 310.355 29.5886 309.954 29.5574C307.785 29.5574 306.02 31.7368 306.02 34.5701V60.7235C305.945 61.5224 306.08 62.3272 306.412 63.0568C306.745 63.7864 307.263 64.4149 307.915 64.879C308.61 65.3735 309.435 65.6515 310.287 65.6781C310.928 65.6761 311.555 65.4869 312.092 65.1336C312.628 64.7802 313.051 64.2778 313.309 63.6876C313.802 62.5691 314.025 61.3493 313.96 60.1278V55.7689C313.96 51.8023 313.96 47.7049 314.09 43.6221C314.018 41.772 314.56 39.9505 315.631 38.4436C316.701 36.9367 318.24 35.8297 320.005 35.2966C320.388 35.1607 320.786 35.0728 321.19 35.0351C323.027 35.0351 324.285 36.488 324.734 38.7256C325.004 40.1186 325.139 41.5345 325.138 42.9537C325.138 46.3246 325.138 49.6228 325.138 52.8629V58.8637C325.138 59.7209 325.138 60.6509 325.269 61.5081C325.543 64.0072 326.975 65.7362 328.826 65.7362C329.493 65.6777 330.139 65.4744 330.721 65.1405C331.348 64.687 331.849 64.078 332.173 63.3728C332.497 62.6676 332.635 61.8901 332.572 61.1158C332.572 55.3039 332.572 49.4921 332.572 43.811V42.6922C332.572 41.6335 332.509 40.5758 332.384 39.5247C332.238 37.5682 331.591 35.6827 330.507 34.051C329.422 32.4193 327.937 31.0966 326.194 30.2112M363.519 66.2593L364.242 64.7337C366.34 60.1227 367.542 55.1518 367.785 50.0878C367.915 45.9323 367.785 41.6315 367.785 37.5487V34.8317C367.764 33.9129 367.608 33.0022 367.322 32.1291C367.129 31.3364 366.64 30.6485 365.957 30.2078C365.273 29.767 364.447 29.607 363.649 29.7608C361.35 29.8916 360.106 31.4753 360.106 34.3812V37.941C360.106 41.0358 360.106 44.2759 359.904 47.4434C359.864 49.4006 359.621 51.3483 359.181 53.2553C358.53 56.5535 356.288 58.8056 353.526 58.8056C352.943 58.7914 352.366 58.6784 351.82 58.4714C349.058 57.4834 347.481 55.1005 346.903 51.5989C346.467 47.9439 346.399 44.254 346.7 40.5854V39.1324C346.7 38.4786 346.7 37.8102 346.7 37.1564C346.773 35.7034 346.845 34.2505 346.845 32.7975C346.875 32.1618 346.73 31.5301 346.426 30.9715C346.123 30.4129 345.672 29.9489 345.124 29.63C344.492 29.2506 343.763 29.0638 343.027 29.0924H342.564C341.796 29.1242 341.062 29.4155 340.479 29.9192C339.896 30.4229 339.5 31.1094 339.354 31.8676C338.882 33.2771 338.596 34.7425 338.501 36.2265C338.356 39.2632 338.501 42.3725 338.501 44.9443C338.486 48.2828 338.904 51.6091 339.744 54.839C340.364 58.0868 341.971 61.0616 344.343 63.3534C347.033 65.867 349.867 66.3901 352.745 64.8063C353.263 64.5561 353.749 64.2439 354.191 63.8764C354.452 63.673 354.842 63.4841 355.102 63.2807H355.305C355.612 63.0023 356.005 62.8381 356.419 62.8158C356.548 62.7991 356.68 62.8204 356.798 62.8771C356.916 62.9338 357.015 63.0235 357.084 63.1354C357.185 63.622 357.14 64.1279 356.954 64.5884L356.881 64.7192C356.61 65.7155 356.257 66.6875 355.826 67.6251C354.592 70.3444 353.689 73.2031 353.136 76.1395C352.627 78.2998 352.515 80.5351 352.803 82.7359C353.526 86.3102 355.377 88.4752 358.327 89.2016C359.581 89.476 360.864 89.5883 362.145 89.5358H363.244C364.408 89.5597 365.545 89.1857 366.469 88.4752C368.103 87.2256 368.508 83.9274 367.25 81.6898C366.99 81.2135 366.623 80.8042 366.179 80.4941C365.735 80.184 365.226 79.9816 364.69 79.9026L364.43 79.7719C363.628 79.6396 362.902 79.2156 362.391 78.5805C361.659 77.602 361.186 76.4536 361.014 75.242C360.842 74.0304 360.977 72.7947 361.408 71.6498C362.131 69.8045 362.854 67.9593 363.707 66.1721M439.253 41.9512C439.253 39.3649 439.253 36.6043 439.253 33.9599C439.253 31.3155 437.735 29.601 435.508 29.601H435.378C433.209 29.601 431.893 30.9813 431.502 33.6257C431.364 34.6319 431.296 35.6466 431.3 36.6624V37.5487C431.3 41.6315 431.3 45.8597 431.3 50.0151C431.3 54.7663 429 58.8056 425.515 59.8517C424.983 60.0363 424.428 60.1486 423.867 60.1859C423.404 60.1812 422.952 60.0414 422.567 59.7834C422.182 59.5254 421.88 59.1604 421.697 58.7329C421.257 57.9362 420.967 57.0642 420.844 56.1612C420.584 54.1852 420.396 51.6715 420.323 49.1579C420.323 46.252 420.323 43.1572 420.323 40.4401V34.3086C420.373 33.6519 420.267 32.9927 420.016 32.3845C419.765 31.7762 419.375 31.2358 418.877 30.8069C418.235 30.283 417.469 29.9342 416.653 29.7943C415.838 29.6543 415 29.7278 414.221 30.0078C412.514 30.6762 412.124 32.9137 412.124 34.6282C412.124 40.3093 412.124 46.4409 412.124 53.5168C412.125 56.3929 412.998 59.2004 414.626 61.5662C416.592 64.3414 418.632 65.5909 420.859 65.5909H421.451C423.135 65.3925 424.79 64.9976 426.383 64.414C427.49 64.0063 428.568 63.5207 429.608 62.9611L430.982 62.1619H431.112L431.314 62.2927C431.405 62.4347 431.469 62.5923 431.502 62.7577C431.72 63.0639 431.9 63.3957 432.037 63.7457C432.356 64.3524 432.84 64.8553 433.433 65.1951C434.026 65.5349 434.703 65.6976 435.385 65.664C436.067 65.6304 436.725 65.402 437.282 65.0056C437.84 64.6091 438.273 64.0611 438.53 63.426C439.1 62.1399 439.349 60.7333 439.253 59.3287V42.0384V41.9512ZM289.925 29.2668C288.86 29.125 287.788 29.0377 286.715 29.0052C284.615 28.9546 282.55 29.5531 280.8 30.7198C279.021 31.9838 277.315 33.2334 275.478 34.6864C275.016 35.084 274.616 35.5494 274.292 36.0667C273.991 36.5014 273.823 37.0155 273.811 37.545C273.798 38.0746 273.94 38.5963 274.22 39.0452C274.683 39.8299 275.348 39.8299 276.201 39.3649C277.298 38.7128 278.351 37.9896 279.354 37.2C279.873 36.8505 280.357 36.4515 280.8 36.0086C281.465 35.5436 282.043 35.0205 282.636 34.5556C283.583 33.8288 284.742 33.4357 285.934 33.4368C286.22 33.4254 286.506 33.4498 286.787 33.5095C287.726 33.6784 288.571 34.1869 289.163 34.9392C289.754 35.6914 290.051 36.6352 289.997 37.5923C290.034 38.2747 290.034 38.9586 289.997 39.641V41.0939C290.03 41.2792 290.023 41.4692 289.978 41.6519C289.934 41.8345 289.851 42.0057 289.737 42.1546C289.496 42.3559 289.197 42.4732 288.884 42.4888H287.626H284.545C283.923 42.4956 283.303 42.5637 282.694 42.6922C280.219 43.427 277.95 44.7359 276.071 46.5135C273.828 48.3832 272.2 50.8902 271.4 53.7057C270.984 55.1207 270.941 56.62 271.276 58.0566C271.611 59.4932 272.311 60.8177 273.309 61.9004C274.773 63.3863 276.512 64.5709 278.428 65.3875C279.478 65.8881 280.637 66.1145 281.797 66.0459C282.957 65.9774 284.082 65.616 285.066 64.9952L288.218 63.0192L289.795 62.0312H289.925L290.127 62.1619V62.2927C290.224 62.3834 290.294 62.499 290.33 62.6269C291.255 64.7337 292.166 65.5328 293.873 65.5328C294.447 65.5231 295.019 65.4549 295.579 65.3294C296.046 65.2054 296.464 64.944 296.781 64.5789C297.098 64.2137 297.299 63.7616 297.358 63.2807C297.578 62.3265 297.709 61.3536 297.749 60.3748V39.0888C297.781 36.5788 296.866 34.1495 295.189 32.289C293.774 30.6986 291.841 29.668 289.737 29.383M289.737 55.1296C289.196 56.4096 288.328 57.5231 287.221 58.3575C286.113 59.1919 284.806 59.7174 283.432 59.8808C282.941 59.8557 282.455 59.7678 281.986 59.6192C280.73 59.0112 279.731 57.9743 279.166 56.6939C278.602 55.4135 278.51 53.9732 278.905 52.6305C279.107 51.8521 279.544 51.1554 280.154 50.6353C280.765 50.1152 281.521 49.7972 282.318 49.7246C283.501 49.6193 284.688 49.5756 285.876 49.5938H288.768C289.043 49.5938 289.361 49.5938 289.621 49.5938C289.755 49.6174 289.892 49.6174 290.026 49.5938C290.061 49.5917 290.096 49.597 290.128 49.6094C290.161 49.6218 290.19 49.6409 290.215 49.6657C290.24 49.6904 290.259 49.7201 290.271 49.7528C290.283 49.7855 290.289 49.8204 290.286 49.8553V51.3083C290.418 52.6008 290.259 53.9064 289.824 55.1296M393.613 29.9206C391.824 29.928 390.065 30.3824 388.494 31.2428C387.771 31.6351 387.178 32.1001 386.585 32.4197L385.934 32.8847C385.727 32.9846 385.498 33.0296 385.269 33.0154C385.074 32.9852 384.891 32.9013 384.74 32.7731C384.59 32.6449 384.478 32.4773 384.416 32.289C384.073 31.5027 383.514 30.8309 382.804 30.3523C382.095 29.8737 381.264 29.608 380.41 29.5864C379.321 29.6082 378.283 30.0566 377.518 30.836C376.517 32.1047 376.045 33.7143 376.202 35.3257V48.1989C376.202 60.0116 376.202 71.8387 376.202 83.7094C376.168 84.6852 376.256 85.6613 376.462 86.6154C376.521 87.6289 376.948 88.5855 377.662 89.3034C378.377 90.0213 379.329 90.4504 380.338 90.5093H380.598C381.528 90.5084 382.427 90.1767 383.137 89.5729C383.846 88.9691 384.32 88.1324 384.474 87.2111C384.658 86.0533 384.745 84.8819 384.734 83.7094C384.734 79.089 384.734 74.5267 384.734 69.9789V64.8935C384.746 64.837 384.77 64.7839 384.805 64.7384C384.841 64.6928 384.886 64.656 384.938 64.6308C384.989 64.6055 385.046 64.5925 385.103 64.5927C385.161 64.5929 385.218 64.6063 385.269 64.632C385.399 64.632 385.457 64.7627 385.529 64.7627V64.8354C386.61 65.6198 387.874 66.1108 389.199 66.261C390.524 66.4111 391.865 66.2154 393.093 65.6926C396.055 64.6318 398.716 62.8614 400.844 60.5346C402.688 58.7276 404.042 56.4769 404.777 53.9963C406.096 49.0951 405.96 43.9136 404.387 39.0888C402.55 33.4077 398.342 29.848 393.483 29.848M397.821 47.734C397.945 50.8559 397.454 53.9716 396.375 56.9022C395.92 58.1405 395.121 59.2217 394.073 60.0175C393.024 60.8132 391.771 61.2902 390.461 61.3919C389.901 61.3839 389.348 61.2756 388.827 61.0722C387.178 60.3457 386.064 58.8201 385.211 56.3065C384.1 52.634 383.674 48.7869 383.953 44.9588C383.953 44.1742 384.155 43.5059 384.286 42.7212V42.6486C384.462 40.814 385.201 39.0796 386.401 37.6847C387.6 36.2899 389.2 35.3032 390.981 34.8607C391.265 34.8253 391.551 34.8253 391.835 34.8607C392.865 34.9429 393.848 35.3326 394.657 35.9798C395.466 36.6269 396.065 37.5021 396.375 38.4931C397.394 41.0556 397.886 43.7986 397.821 46.5571C397.893 46.8137 397.893 47.0851 397.821 47.3417V47.734ZM221.595 29.383C220.351 29.2523 219.295 29.1215 218.37 29.1215C216.272 29.0855 214.212 29.6827 212.455 30.836C210.691 32.1001 209.042 33.3496 207.206 34.8026C206.728 35.2012 206.309 35.6659 205.962 36.1829C205.694 36.6332 205.553 37.1478 205.553 37.6722C205.553 38.1966 205.694 38.7112 205.962 39.1615C206.483 39.9461 207.075 39.9461 207.929 39.4811C209.038 38.85 210.093 38.1257 211.081 37.3162C211.616 36.9094 212.209 36.5171 212.672 36.1248C213.135 35.7325 213.843 35.1368 214.509 34.6718C215.441 33.9278 216.601 33.5323 217.791 33.553C218.035 33.5411 218.278 33.5656 218.514 33.6257C219.469 33.7863 220.334 34.2877 220.951 35.0378C221.567 35.7878 221.893 36.7362 221.869 37.7085C221.869 38.435 221.869 39.1615 221.869 39.8299V41.2102C221.894 41.593 221.775 41.9712 221.537 42.2708C221.425 42.3827 221.292 42.4701 221.145 42.5276C220.998 42.5851 220.841 42.6114 220.684 42.605H219.368H216.475C215.858 42.6048 215.242 42.673 214.639 42.8084C212.131 43.527 209.831 44.8372 207.929 46.6297C205.71 48.518 204.091 51.0185 203.272 53.8219C202.853 55.2367 202.809 56.7367 203.144 58.1738C203.479 59.611 204.181 60.9355 205.181 62.0166C206.679 63.4955 208.44 64.6784 210.373 65.5038C211.42 66.003 212.577 66.2288 213.734 66.1602C214.892 66.0916 216.014 65.7309 216.996 65.1115C217.994 64.4576 219.107 63.7893 220.221 63.1354C220.684 62.8012 221.204 62.4816 221.667 62.1474H221.869L222 62.2782L222.13 62.4089C222.13 62.4816 222.13 62.6124 222.13 62.7431C223.113 64.8499 224.039 65.649 225.745 65.649C226.343 65.6319 226.938 65.5639 227.524 65.4456C227.982 65.3091 228.392 65.0436 228.704 64.6805C229.017 64.3175 229.22 63.8721 229.288 63.3969C229.496 62.442 229.607 61.4684 229.621 60.491C229.621 55.4638 229.621 50.5237 229.621 45.6417V38.8999C229.66 36.3751 228.716 33.9349 226.989 32.1001C225.574 30.5097 223.641 29.4791 221.537 29.1941M221.537 54.9407C221.01 56.2303 220.146 57.3527 219.036 58.1891C217.926 59.0255 216.611 59.5448 215.232 59.6919C214.716 59.6798 214.204 59.5917 213.713 59.4304C212.477 58.8003 211.495 57.7607 210.934 56.4873C210.373 55.2138 210.266 53.7847 210.633 52.4416C210.847 51.6564 211.296 50.9564 211.92 50.4366C212.543 49.9167 213.311 49.6022 214.118 49.5357C215.296 49.4279 216.479 49.3842 217.661 49.4049H220.554C220.886 49.4049 221.146 49.4049 221.407 49.4049C221.56 49.4333 221.717 49.4333 221.869 49.4049C222 49.4049 222.072 49.5357 222.072 49.6664V51.1194C222.176 52.4115 222.019 53.7114 221.609 54.9407M192.441 50.6545C191.978 50.1314 191.587 49.5938 191.125 49.0707C190.662 48.5476 190.402 48.2135 190.011 47.8212L189.606 47.3562C189.606 47.2254 189.606 47.1528 189.606 47.0947C190.069 46.3682 190.532 45.6417 191.052 45.046C192.108 43.593 193.091 42.1401 194.075 40.6871C195.478 38.5011 196.559 36.1227 197.285 33.6257C197.546 33.0469 197.611 32.3983 197.47 31.779C197.329 31.1597 196.99 30.6039 196.504 30.1967C195.77 29.5569 194.843 29.1834 193.872 29.136C193.371 29.1553 192.882 29.2978 192.448 29.5511C192.015 29.8045 191.649 30.1608 191.385 30.589C190.387 32.042 189.404 33.6257 188.493 35.2094L188.362 35.3983C187.509 36.8513 186.714 38.3042 185.861 39.7572C185.528 40.4256 185.137 41.0794 184.805 41.7332C184.777 41.777 184.738 41.8131 184.693 41.8384C184.647 41.8637 184.596 41.8775 184.545 41.8785C184.545 41.8785 184.414 41.8785 184.414 41.7332C184.008 41.2776 183.635 40.7919 183.301 40.2803C182.578 39.147 181.855 38.1589 181.132 37.0983C180.409 36.0376 179.686 34.5992 179.035 33.4077C178.63 32.6231 178.239 31.9548 177.849 31.0975C177.561 30.4836 177.104 29.9649 176.533 29.6021C175.962 29.2393 175.3 29.0474 174.624 29.0488H174.031C173.627 29.0923 173.237 29.2209 172.885 29.4262C172.534 29.6315 172.23 29.9089 171.992 30.2403C171.732 30.7223 171.581 31.2558 171.548 31.803C171.516 32.3503 171.603 32.8981 171.804 33.4077C172.508 35.8042 173.618 38.0605 175.087 40.0769C176.143 41.5298 177.184 42.852 178.37 44.305C178.832 44.9588 179.353 45.5545 179.816 46.2084C179.816 46.3391 179.816 46.4118 179.816 46.4844C179.716 46.6429 179.583 46.777 179.425 46.8767C179.295 47.1383 179.093 47.3417 178.963 47.6032C178.445 48.2148 177.962 48.8551 177.516 49.5211C176.2 51.2356 174.827 53.0082 173.568 54.7954C172.252 56.6308 171.273 58.6875 170.676 60.8688C170.141 62.7141 170.401 64.2397 171.587 64.9662C172.198 65.4242 172.936 65.6783 173.699 65.6926C174.476 65.6679 175.232 65.4337 175.889 65.0145C176.545 64.5953 177.077 64.0065 177.43 63.3098L178.485 61.3919L178.876 60.6073C180.159 57.9399 181.847 55.4891 183.879 53.3424C184.863 52.2236 185.716 51.8895 186.772 53.3424C188.111 55.0201 189.343 56.7818 190.459 58.6167C191.038 59.6192 191.573 60.6654 192.093 61.6534C192.393 62.4043 192.746 63.1327 193.149 63.8328C193.367 64.3734 193.738 64.8377 194.216 65.1683C194.694 65.4989 195.259 65.6812 195.839 65.6926C196.577 65.6765 197.299 65.4715 197.936 65.0969C198.234 64.9162 198.47 64.6481 198.612 64.3286C198.755 64.0091 198.796 63.6536 198.731 63.3098C198.44 60.908 197.704 58.5821 196.562 56.4518C195.426 54.3911 194.037 52.4823 192.426 50.7707M264.56 62.2491C264.501 61.7666 264.501 61.2787 264.56 60.7961V39.0017L264.487 34.9769C264.575 33.6727 264.3 32.3695 263.692 31.2138C263.338 30.5796 262.824 30.05 262.202 29.6777C261.581 29.3055 260.873 29.1036 260.149 29.0924C259.615 29.1157 259.086 29.2035 258.573 29.354C256.938 30.0805 256.071 31.6642 256.071 34.2505V44.4212C256.134 45.8616 255.887 47.2988 255.348 48.6348C254.806 49.8452 253.991 50.9117 252.967 51.7493C251.942 52.5868 250.737 53.1722 249.447 53.4587C248.642 53.6009 247.813 53.4373 247.12 52.9996C246.428 52.562 245.923 51.8815 245.702 51.0903C245.08 49.4449 244.79 47.6915 244.849 45.9323V41.9802C244.849 40.2657 244.849 39.394 244.776 35.7034C244.773 34.4121 244.598 33.127 244.256 31.8821C244.049 31.0691 243.584 30.3458 242.932 29.8215C242.28 29.2972 241.475 29.0005 240.64 28.9762C240.136 28.9529 239.634 29.0627 239.185 29.2947C238.736 29.5266 238.355 29.8727 238.081 30.2984C237.427 31.3928 237.105 32.6553 237.155 33.9308C237.227 34.4562 237.227 34.9891 237.155 35.5146V35.6453C237.204 36.1284 237.204 36.6152 237.155 37.0983V40.135C237.155 42.3871 237.155 44.6246 237.155 46.8767C237.138 49.8971 238.058 52.8478 239.787 55.3185C241.161 57.1056 242.998 59.2124 245.76 58.9509C248.873 58.7077 251.867 57.6399 254.437 55.8561C254.854 55.5015 255.35 55.2524 255.883 55.1296C256.534 55.1296 256.534 55.7834 256.534 57.1056V62.2491C256.606 66.2012 256.866 67.0584 257.329 68.2499C257.748 69.2449 258.454 70.091 259.356 70.6789C260.258 71.2668 261.315 71.5696 262.39 71.5481C263.489 71.5871 264.57 71.2658 265.471 70.6327C267.249 69.4413 266.454 67.3926 265.601 65.2132C265.133 64.2524 264.801 63.2301 264.617 62.1765" fill="white"/>
<path d="M280.524 94.9407C280.583 96.2515 280.172 97.54 279.367 98.5731C279.144 98.882 278.847 99.1292 278.503 99.2918C278.159 99.4543 277.78 99.527 277.401 99.503C276.781 99.4726 276.177 99.2947 275.639 98.984C275.101 98.6733 274.644 98.2387 274.306 97.7159C273.86 96.8573 273.613 95.9086 273.583 94.9407C273.514 94.1781 273.656 93.4114 273.993 92.7245C274.33 92.0377 274.848 91.4572 275.492 91.0468V92.0348C275.492 92.8339 276.345 93.0954 276.677 93.0954C276.923 93.1174 277.171 93.0905 277.407 93.0162C277.642 92.9419 277.861 92.8218 278.05 92.6625C278.24 92.5033 278.396 92.3082 278.51 92.0883C278.625 91.8684 278.695 91.6281 278.716 91.381C279.322 91.7618 279.813 92.3011 280.137 92.941C280.46 93.581 280.604 94.2974 280.553 95.0134M270.56 95.4057C270.558 96.4358 270.714 97.4601 271.023 98.4424C271.407 99.5947 272.154 100.59 273.15 101.28C274.147 101.969 275.339 102.314 276.547 102.264C277.856 102.314 279.153 101.997 280.293 101.348C281.418 100.548 282.322 99.4736 282.919 98.2254C283.516 96.9772 283.787 95.5967 283.706 94.2142C283.838 92.7239 283.393 91.2396 282.464 90.0704C281.535 88.9012 280.192 88.1372 278.716 87.9374V87.6032C278.716 86.746 277.921 86.6152 277.531 86.6152C277.057 86.5853 276.589 86.7295 276.214 87.021C275.839 87.3124 275.582 87.7312 275.492 88.199C273.999 88.6704 272.704 89.6271 271.811 90.9185C270.919 92.2099 270.479 93.7629 270.56 95.333M254.277 91.1049V96.3937C254.277 97.9774 254.147 99.5612 254.147 101.145C254.155 101.297 254.195 101.446 254.263 101.583C254.332 101.719 254.427 101.84 254.543 101.938C254.66 102.036 254.795 102.109 254.941 102.152C255.086 102.196 255.239 102.209 255.39 102.191C256.113 102.191 257.169 101.741 257.169 100.738C257.278 99.7103 257.321 98.6766 257.299 97.6432C257.658 97.1301 258.054 96.6444 258.485 96.1903C258.875 96.321 259.338 96.5244 259.931 96.6552C259.931 96.786 260.394 97.5125 260.712 97.9774C261.154 98.6835 261.637 99.3628 262.158 100.012C262.681 100.921 263.514 101.609 264.502 101.951C265.491 102.293 266.569 102.264 267.538 101.871C267.851 101.774 268.127 101.582 268.329 101.323C268.53 101.063 268.648 100.747 268.666 100.418C268.672 100.268 268.647 100.118 268.592 99.9775C268.538 99.8372 268.455 99.7098 268.349 99.6033C268.243 99.4969 268.116 99.4136 267.977 99.3588C267.837 99.304 267.688 99.2789 267.538 99.2851C267.177 99.3153 266.825 99.4087 266.497 99.5611C265.238 99.5611 264.197 97.3817 263.214 95.9287C262.594 95.0725 261.747 94.4081 260.77 94.0108C261.749 92.961 262.808 91.9894 263.937 91.1049C263.937 91.2357 263.792 91.3083 263.792 91.4391C263.814 91.7192 263.945 91.9794 264.156 92.1641C264.367 92.3488 264.641 92.4432 264.92 92.4271C265.351 92.4284 265.773 92.3042 266.135 92.0695C266.497 91.8349 266.783 91.4998 266.959 91.1049C266.959 90.7126 267.09 90.3784 267.09 90.1169C267.1 89.8279 267.05 89.54 266.945 89.271C266.839 89.0019 266.68 88.7576 266.477 88.5532C266.273 88.3488 266.03 88.1886 265.762 88.0826C265.494 87.9767 265.208 87.9273 264.92 87.9374C263.604 87.9374 262.491 89.0562 261.638 89.6519C260.14 90.9159 258.734 92.2851 257.429 93.7493V89.6519C257.429 87.6759 257.429 85.758 257.559 83.8401C257.559 83.5854 257.475 83.338 257.321 83.1359C257.167 82.9338 256.951 82.7881 256.706 82.7213C256.324 82.5904 255.924 82.5218 255.52 82.5178C255 82.5178 254.797 82.5905 254.407 82.5905C253.956 82.619 253.531 82.8068 253.205 83.1206C252.879 83.4345 252.675 83.8541 252.628 84.305C252.65 84.5723 252.77 84.8218 252.965 85.0046C253.161 85.1874 253.417 85.2903 253.684 85.293H254.407L254.277 91.1049ZM247.899 99.5611V96.3937C247.899 94.0108 248.159 91.5698 248.159 89.1289C248.16 88.9845 248.131 88.8417 248.074 88.7091C248.017 88.5764 247.934 88.4568 247.83 88.3575C247.726 88.2582 247.603 88.1814 247.468 88.1316C247.333 88.0819 247.189 88.0603 247.046 88.0682C246.703 88.0585 246.363 88.1312 246.053 88.2803C245.744 88.4294 245.474 88.6506 245.267 88.9254C243.243 91.5698 241.261 94.2142 239.222 96.9167C239.367 95.2023 239.497 93.2843 239.497 91.3083C239.627 91.2357 239.627 90.7126 239.627 90.2476C239.66 89.9403 239.629 89.6294 239.537 89.3344C239.445 89.0395 239.294 88.7667 239.092 88.5331C238.589 88.1495 237.954 87.9823 237.328 88.0682C236.735 88.0682 236.07 88.199 235.882 88.199H235.752C235.302 88.2224 234.873 88.3992 234.536 88.7004C234.2 89.0015 233.976 89.4089 233.901 89.8553C233.904 89.9968 233.936 90.1361 233.996 90.2642C234.056 90.3924 234.141 90.5066 234.247 90.5996C234.354 90.6926 234.478 90.7623 234.612 90.8043C234.747 90.8462 234.889 90.8595 235.029 90.8433H236.475V91.5698C236.475 92.2963 236.345 93.0228 236.345 93.6185C236.345 95.2022 236.07 97.0475 236.07 98.7039C236.025 99.6135 236.118 100.525 236.345 101.406C236.345 102.002 236.923 102.191 237.458 102.191C237.856 102.203 238.249 102.099 238.588 101.889C238.927 101.68 239.198 101.376 239.367 101.014C241.131 98.7039 242.968 96.1903 244.747 93.7493V99.5611C244.877 102.002 245.99 102.467 247.769 102.467H248.622C249.08 102.417 249.509 102.217 249.842 101.896C250.174 101.575 250.391 101.152 250.459 100.694C250.458 100.554 250.427 100.415 250.369 100.287C250.311 100.158 250.227 100.044 250.122 99.9508C250.016 99.8576 249.893 99.7876 249.759 99.7455C249.626 99.7034 249.485 99.6901 249.345 99.7064H248.492C248.328 99.71 248.167 99.6645 248.029 99.5757L247.899 99.5611ZM222.274 99.0962V98.7039C222.261 96.6192 222.573 94.5455 223.199 92.5579C223.336 92.0904 223.623 91.6816 224.016 91.3952C224.408 91.1087 224.883 90.9607 225.368 90.9741C226.068 90.9848 226.738 91.2651 227.238 91.7571C227.739 92.2492 228.032 92.9154 228.058 93.6185C228.071 93.8254 228.026 94.0319 227.928 94.2142C227.335 96.9167 225.166 98.5005 222.274 99.0962ZM219.121 98.9654C219.156 101.737 219.442 104.499 219.974 107.218C220.046 107.479 220.201 107.71 220.415 107.875C220.629 108.04 220.89 108.131 221.16 108.134C221.656 108.135 222.135 107.956 222.51 107.631C222.884 107.305 223.129 106.854 223.199 106.361V106.085C222.839 104.61 222.597 103.109 222.476 101.595C224.284 101.303 225.991 100.567 227.447 99.4513C228.903 98.336 230.062 96.8763 230.82 95.2022C231.067 94.3842 231.222 93.5411 231.283 92.6886C231.321 92.0719 231.228 91.4541 231.011 90.8762C230.793 90.2983 230.456 89.7734 230.021 89.3365C229.586 88.8996 229.063 88.5606 228.488 88.3419C227.913 88.1232 227.298 88.0299 226.684 88.0682C220.567 88.0682 219.121 93.7493 219.121 98.9654ZM206.713 96.1903C207.741 95.2222 209.057 94.6199 210.459 94.4758C210.719 95.3862 210.917 96.3134 211.052 97.2509C210.499 97.5435 209.968 97.8736 209.461 98.239C208.853 98.5756 208.22 98.8623 207.566 99.0962C206.908 99.3332 206.223 99.4893 205.527 99.5611H205.397V99.227C205.645 98.1415 206.091 97.1118 206.713 96.1903ZM209.461 92.2963C207.931 92.7259 206.471 93.3717 205.122 94.2142C203.523 95.661 202.535 97.6675 202.36 99.8227C202.36 101.595 203.546 102.191 204.92 102.191C205.859 102.197 206.793 102.045 207.682 101.741C209.061 101.308 210.381 100.707 211.616 99.9534C211.632 100.407 211.724 100.854 211.89 101.276C212.151 102.322 213.467 102.133 214.19 102.133C214.656 102.117 215.101 101.936 215.448 101.623C215.794 101.309 216.02 100.883 216.084 100.418C216.084 99.5612 215.101 99.4304 214.638 99.4304C214.151 96.5985 213.425 93.8134 212.469 91.1049C212.252 90.2152 211.749 89.4223 211.038 88.8495C210.326 88.2767 209.447 87.956 208.535 87.9374C207.861 87.9465 207.195 88.0795 206.568 88.3297C206.239 88.4065 205.944 88.5907 205.729 88.8535C205.515 89.1163 205.393 89.443 205.383 89.7827C205.383 90.0987 205.508 90.4017 205.73 90.6252C205.952 90.8486 206.254 90.9741 206.568 90.9741C206.949 90.9337 207.323 90.8458 207.682 90.7126C208.275 90.7126 208.868 91.2356 209.446 92.2963M202.216 100.418C202.218 100.264 202.188 100.111 202.129 99.9683C202.069 99.8258 201.981 99.6973 201.87 99.5909C201.758 99.4844 201.626 99.4023 201.482 99.3497C201.337 99.297 201.183 99.275 201.03 99.2851C200.567 99.2851 200.046 99.4304 199.584 99.4304H199.453C198.861 97.9774 196.301 89.9861 193.076 80.6726C193.009 80.4629 192.878 80.2798 192.701 80.1494C192.525 80.019 192.312 79.9478 192.093 79.9461C191.576 79.9518 191.08 80.1519 190.702 80.5069C190.325 80.8619 190.093 81.3461 190.054 81.864V82.2563C190.208 82.5324 190.343 82.8189 190.458 83.1136V83.2443C189.012 87.6032 188.289 91.5698 186.438 95.5945C185.444 92.0303 184.192 88.5436 182.693 85.1623C181.521 82.7213 180.393 79.6846 177.646 79.6846C176.78 79.7974 175.936 80.0423 175.144 80.4111C174.826 80.5748 174.556 80.8191 174.36 81.1198C174.165 81.4204 174.051 81.7671 174.03 82.1255C174.038 82.4199 174.157 82.7003 174.365 82.9085C174.572 83.1167 174.851 83.237 175.144 83.2443C175.438 83.192 175.724 83.1042 175.997 82.9828C176.219 82.7964 176.504 82.7027 176.792 82.7213C177.443 82.7213 177.906 83.317 178.759 84.4358C178.759 84.4705 178.745 84.5037 178.721 84.5282C178.697 84.5528 178.664 84.5665 178.629 84.5665C176.46 89.7827 175.867 96.3937 172.382 100.288C172.121 100.68 171.861 100.869 171.861 101.276C171.861 102.133 172.844 102.191 173.177 102.191C173.479 102.206 173.779 102.148 174.054 102.021C174.328 101.895 174.568 101.704 174.753 101.465C178.166 97.774 178.962 92.4271 180.538 87.6759C181.058 88.9254 181.521 90.1169 181.782 90.8433C182.837 94.1416 183.228 96.5244 184.544 99.5611C184.535 99.6657 184.547 99.7711 184.579 99.8709C184.611 99.9707 184.663 100.063 184.732 100.142C184.862 100.418 185.397 100.549 185.715 100.549C186.013 100.544 186.307 100.476 186.579 100.351C186.85 100.226 187.093 100.046 187.291 99.8227C187.418 99.7061 187.53 99.5743 187.624 99.4304C189.479 95.6375 190.976 91.6777 192.093 87.6032C193.669 92.4271 194.855 96.786 196.561 101.595C196.952 102.453 198.007 102.191 198.268 102.191H200.307C200.784 102.176 201.24 101.989 201.591 101.663C201.942 101.337 202.164 100.895 202.216 100.418Z" fill="white"/>
</svg>
