<svg width="199" height="289" viewBox="0 0 199 289" fill="none" xmlns="http://www.w3.org/2000/svg">
<path d="M127.576 140.62L141.576 130.12C152.016 116.745 158.007 108.788 169.703 99.1401C170.877 98.1719 171.588 96.7308 171.558 95.2094C171.44 89.1131 170.492 85.8212 162.576 86.1199C157.403 87.9861 152.108 94.1053 142.725 104.948L142.576 105.12C136.769 80.9986 128.817 78.5645 111.076 82.6199C108.007 69.9957 100.776 66.4436 87.0758 60.6199C98.6936 59.8843 103.951 58.9398 106.076 54.1199C107.741 46.4003 105.406 41.6612 97.0758 34.6199C87.735 29.48 81.8779 29.8509 70.0758 37.6199C70.9202 28.2893 71.742 22.9995 74.0758 13.6199C74.9632 -0.9972 63.0762 -5.3926 56.5758 8.11988C50.0755 21.6324 51.0758 28.6199 51.0758 28.6199L42.0067 19.9451C40.3964 18.4048 38.5591 17.1022 36.5096 16.2273C26.3031 11.8707 21.0847 12.8733 15.0758 22.1199C11.7689 33.423 13.0917 37.0991 19.0758 40.6199L30.0758 46.6199C10.0035 52.3973 1.98545 57.2461 0.0758377 72.1199C-0.262192 83.0534 0.145697 88.4581 9.57584 87.6199L21.5758 86.1199C17.6743 108.854 17.8046 120.252 27.7638 131.232C28.8634 132.445 30.5387 132.947 32.1427 132.621C56.787 127.609 66.3883 118.797 69.5758 87.6199L84.5758 102.12C90.8544 109.147 94.4498 111.212 101.076 109.62C107.054 107.333 109.172 104.033 111.076 95.1199C113.805 91.4739 115.769 91.0062 121.576 95.1199C129.807 101.669 131.056 108.635 126.576 127.62L127.576 140.62Z" fill="#940000"/>
<path d="M102.576 194.607C102.576 205.377 93.8457 214.107 83.0762 214.107C72.3066 214.107 63.5762 205.377 63.5762 194.607C63.5762 183.838 72.3066 175.107 83.0762 175.107C93.8457 175.107 102.576 183.838 102.576 194.607Z" fill="#940000"/>
<path d="M108.576 231.607C108.576 242.377 99.8457 251.107 89.0762 251.107C78.3066 251.107 69.5762 242.377 69.5762 231.607C69.5762 220.838 78.3066 212.107 89.0762 212.107C99.8457 212.107 108.576 220.838 108.576 231.607Z" fill="#940000"/>
<path d="M139.576 209.607C139.576 220.377 130.846 229.107 120.076 229.107C109.307 229.107 100.576 220.377 100.576 209.607C100.576 198.838 109.307 190.107 120.076 190.107C130.846 190.107 139.576 198.838 139.576 209.607Z" fill="#940000"/>
<path d="M134.576 173.607C134.576 184.377 125.846 193.107 115.076 193.107C104.307 193.107 95.5762 184.377 95.5762 173.607C95.5762 162.838 104.307 154.107 115.076 154.107C125.846 154.107 134.576 162.838 134.576 173.607Z" fill="#940000"/>
<path d="M99.5762 157.607C99.5762 168.377 90.8457 177.107 80.0762 177.107C69.3066 177.107 60.5762 168.377 60.5762 157.607C60.5762 146.838 69.3066 138.107 80.0762 138.107C90.8457 138.107 99.5762 146.838 99.5762 157.607Z" fill="#940000"/>
<path d="M128.576 135.607C128.576 146.377 119.846 155.107 109.076 155.107C98.3066 155.107 89.5762 146.377 89.5762 135.607C89.5762 124.838 98.3066 116.107 109.076 116.107C119.846 116.107 128.576 124.838 128.576 135.607Z" fill="#940000"/>
<path d="M164.576 149.607C164.576 160.377 155.846 169.107 145.076 169.107C134.307 169.107 125.576 160.377 125.576 149.607C125.576 138.838 134.307 130.107 145.076 130.107C155.846 130.107 164.576 138.838 164.576 149.607Z" fill="#940000"/>
<path d="M198.576 165.607C198.576 176.377 189.846 185.107 179.076 185.107C168.307 185.107 159.576 176.377 159.576 165.607C159.576 154.838 168.307 146.107 179.076 146.107C189.846 146.107 198.576 154.838 198.576 165.607Z" fill="#940000"/>
<path d="M169.576 187.607C169.576 198.377 160.846 207.107 150.076 207.107C139.307 207.107 130.576 198.377 130.576 187.607C130.576 176.838 139.307 168.107 150.076 168.107C160.846 168.107 169.576 176.838 169.576 187.607Z" fill="#940000"/>
<path d="M173.576 223.607C173.576 234.377 164.846 243.107 154.076 243.107C143.307 243.107 134.576 234.377 134.576 223.607C134.576 212.838 143.307 204.107 154.076 204.107C164.846 204.107 173.576 212.838 173.576 223.607Z" fill="#940000"/>
<path d="M142.576 246.607C142.576 257.377 133.846 266.107 123.076 266.107C112.307 266.107 103.576 257.377 103.576 246.607C103.576 235.838 112.307 227.107 123.076 227.107C133.846 227.107 142.576 235.838 142.576 246.607Z" fill="#940000"/>
<path d="M112.576 268.607C112.576 279.377 103.846 288.107 93.0762 288.107C82.3066 288.107 73.5762 279.377 73.5762 268.607C73.5762 257.838 82.3066 249.107 93.0762 249.107C103.846 249.107 112.576 257.838 112.576 268.607Z" fill="#940000"/>
</svg>
