<svg width="170" height="148" viewBox="0 0 170 148" fill="none" xmlns="http://www.w3.org/2000/svg">
<path fill-rule="evenodd" clip-rule="evenodd" d="M101.358 4.23752C85.8923 -3.1186 74.4362 0.219275 62.0202 5.79987C59.5794 6.89691 57.1563 8.57161 56.9468 11.2394C56.704 14.3319 57.6772 18.9315 59.6906 26.0564C60.4305 28.675 61.0282 31.4271 60.3523 34.063C55.6134 52.5438 17.2791 60.9365 7.33199 78.9998C-1.4688 94.9815 -1.7757 102.737 3.38673 115.037C5.78102 120.741 9.33667 125.978 14.1081 129.916C24.9678 138.879 35.4587 140.539 55.332 137C84.0755 151.375 99.0603 150.755 124.332 137C142.497 139.247 151.283 136.728 161.337 126.669C163.383 124.622 165.061 122.218 166.265 119.586C172.546 105.851 170.973 96.6051 160.229 82.622C158.355 80.1842 156.06 78.0874 153.567 76.288C121.46 53.1115 106.694 40.9865 107.332 29.9998C107.907 23.4589 108.507 18.4034 108.401 14.1902C108.291 9.79292 105.33 6.1269 101.358 4.23752ZM96.8303 32.4867C104.689 56.4933 130.289 95.3849 123.83 90.4867C112.004 81.5181 95.9531 50.658 96.8303 32.4867ZM86.3298 82.9867C86.3286 79.9867 85.8269 52.0123 83.8298 32.4867C76.6654 66.1206 82.1031 88.7693 83.62 90.4073C83.7315 90.5277 83.8707 90.4133 83.9475 90.2683C84.4425 89.3328 86.3309 85.5935 86.3298 82.9867ZM45.3298 86.4867C66.0235 65.2221 73.2351 26.9836 71.8298 32.4867C71.3419 34.3973 69.0738 39.1794 66.2819 44.4696C62.1569 52.2856 45.7258 77.6579 45.3298 86.4867Z" fill="#940000"/>
</svg>
