<svg width="156" height="148" viewBox="0 0 156 148" fill="none" xmlns="http://www.w3.org/2000/svg">
<path fill-rule="evenodd" clip-rule="evenodd" d="M62.9634 4.25045C67.9496 1.65876 72.4817 0.390452 76.7576 0.0781797C81.413 -0.261817 85.7645 0.531515 90.0672 1.98404C93.0636 2.99557 96.0363 4.32679 99.0716 5.81756C101.312 6.91794 103.536 8.59775 103.728 11.2736C103.951 14.3756 103.058 18.9893 101.21 26.1358C100.531 28.7625 99.9821 31.523 100.603 34.1669C104.952 52.7041 140.14 61.1224 149.27 79.2408C157.349 95.2712 157.63 103.05 152.892 115.388C150.694 121.11 147.43 126.362 143.05 130.312C133.082 139.303 123.453 140.968 105.211 137.418C78.8268 151.837 65.0722 151.214 41.8751 137.418C25.2017 139.672 17.1369 137.145 7.90783 127.055C6.02992 125.002 4.48942 122.591 3.38462 119.951C-2.38113 106.174 -0.937258 96.8997 8.9254 82.874C10.6448 80.4288 12.752 78.3255 15.0401 76.5207C44.5115 53.2735 58.0647 41.1115 57.4795 30.0913C56.9519 23.5304 56.4006 18.4596 56.498 14.2335C56.5996 9.82279 59.3173 6.14559 62.9634 4.25045ZM67.1191 32.5858C59.906 56.6656 36.407 95.6758 42.3356 90.7627C53.1909 81.7667 67.9243 50.8126 67.1191 32.5858ZM76.7576 83.2398C76.7587 80.2306 77.2192 52.171 79.0523 32.5858C85.6286 66.3222 80.6373 89.0401 79.2449 90.6831C79.1425 90.8038 79.0148 90.6891 78.9443 90.5436C78.4899 89.6053 76.7565 85.8545 76.7576 83.2398ZM114.392 86.7505C95.3969 65.421 88.7773 27.0659 90.0672 32.5858C90.515 34.5022 92.597 39.2989 95.1597 44.6053C98.9461 52.4451 114.028 77.8947 114.392 86.7505Z" fill="#940000"/>
</svg>
