<svg width="165" height="265" viewBox="0 0 165 265" fill="none" xmlns="http://www.w3.org/2000/svg">
<path fill-rule="evenodd" clip-rule="evenodd" d="M107.593 0.650319C102.267 -0.812899 34.6998 0.650319 34.6998 0.650319C29.0783 1.52531 27.9346 3.45232 29.0617 8.66092C31.047 23.8403 47.2299 24.7347 44.768 57.7258C42.306 90.7169 17.9753 106.614 8.52266 124.314C-0.929995 142.014 -11.5566 197.09 31.0753 247.977C31.6406 257.463 33.3675 261.47 40.338 265H102.761C108.463 264.073 110.791 260.978 112.426 247.977C127.328 229.302 133.907 216.463 141.825 188.399C142.009 187.054 142.192 185.735 142.375 184.439C149.801 131.9 185.171 70.319 148.269 32.192C134.769 21.0355 124.314 22.3588 102.761 32.192C105.078 23.6701 107.609 18.4341 113.231 8.66092C113.749 4.27453 112.919 2.11354 107.593 0.650319ZM130.146 48.2132C98.3305 49.7152 98.8856 86.3675 132.562 124.314C134.095 126.219 136.38 126.835 137.608 124.721C145.626 110.923 158.507 46.8743 130.146 48.2132Z" fill="#940000"/>
</svg>
