<svg width="203" height="265" viewBox="0 0 203 265" fill="none" xmlns="http://www.w3.org/2000/svg">
<path fill-rule="evenodd" clip-rule="evenodd" d="M133.581 0.649459C126.969 -0.811824 43.0812 0.649459 43.0812 0.649459C36.1019 1.52329 34.6819 3.44775 36.0812 8.64946C38.5461 23.8088 58.6378 24.702 55.5812 57.6495C52.5246 90.5969 22.317 106.473 10.5812 124.149C-1.15463 141.826 -14.348 196.829 38.5812 247.649C39.283 257.122 41.4271 261.124 50.0812 264.649H127.581C134.661 263.724 137.551 260.632 139.581 247.649C158.083 228.999 166.251 216.177 176.081 188.149C176.26 187.098 176.438 186.062 176.616 185.04C185.964 131.428 225.935 66.9329 184.081 32.1495C167.321 21.0076 154.34 22.3292 127.581 32.1495C130.458 23.6388 133.601 18.4097 140.581 8.64946C141.224 4.26887 140.194 2.11074 133.581 0.649459ZM161.581 48.1495C122.081 49.6495 122.77 86.2533 164.581 124.149C166.506 126.074 169.19 126.825 170.795 124.626C180.746 110.995 196.853 46.81 161.581 48.1495Z" fill="#940000"/>
</svg>
