<svg width="439" height="206" viewBox="0 0 439 206" fill="none" xmlns="http://www.w3.org/2000/svg">
<path d="M131.216 186.845C127.785 181.027 125.947 164.012 120.953 161.72C117.928 160.398 124.442 182.547 124.702 182.437C117.335 189.335 108.78 159.009 109.113 159.207C110.04 159.604 118.319 167.009 118.652 164.717C118.652 164.717 98.7205 134.677 106.942 167.825C111.617 186.647 135.225 193.347 131.216 186.845C132.46 188.74 130.087 184.95 131.216 186.845Z" fill="white"/>
<path d="M32.993 144.794C35.1441 131.473 36.012 117.745 35.5695 104.043C35.1063 93.1338 33.5865 82.2022 33.1233 70.4992C33.1233 69.0006 33.7891 68.097 34.701 69.2871C40.1 76.6042 56.2824 85.9049 56.2824 96.5279C56.2824 110.655 32.472 148.1 32.993 144.794Z" fill="white"/>
<path d="M27.3194 165.313C23.4403 170.713 15.407 183.54 15.9425 192.444C16.1307 194.647 6.86703 194.361 6.40385 195.551C8.05394 191.143 24.0916 157.401 27.58 160.707C20.6033 148.188 -3.52562 206.262 0.483803 205.359C27.58 199.166 28.3037 163.814 27.3194 165.313Z" fill="white"/>
<path d="M41.1277 60.1847C44.674 59.0827 81.0338 54.8731 88.0105 54.9833C88.7922 54.9833 88.9224 55.8869 88.604 56.482C84.913 63.4906 64.2724 88.814 62.2315 86.2133C61.117 84.913 37.1183 61.5952 41.1277 60.1847Z" fill="white"/>
<path d="M131.419 0.69989C126.425 -0.0935328 112.602 3.30058 108.795 18.2213C106.233 28.5358 103.15 44.1618 103.468 44.0516C103.787 43.9414 113.731 40.1506 113.268 36.5582C112.804 32.9658 105.914 37.3516 106.436 36.1615C111.429 23.3345 115.12 9.91242 126.092 7.2236C125.441 7.42196 114.512 35.5444 114.845 35.7427C118.869 38.5638 132.215 0.898245 131.419 0.69989C133.069 1.00844 129.841 0.501534 131.419 0.69989Z" fill="white"/>
<path d="M92.2245 149.488C83.7424 146.293 27.3789 167.627 41.2599 143.384C47.4984 132.584 61.6399 105.233 73.0168 114.732C77.8803 118.854 96.9576 151.384 92.2245 149.577" fill="white"/>
<path d="M85.7097 153.808C78.4725 156.211 61.3781 165.622 53.0264 158.216C54.2712 156.916 93.0772 151.318 85.7097 153.808Z" fill="white"/>
<path d="M29.6199 54.7848C34.4834 52.2723 24.4815 27.0371 25.4657 34.7509C25.9289 38.4535 27.058 56.0851 29.6199 54.7848ZM14.4218 51.6772C16.7232 58.5756 25.7987 56.8786 29.1567 56.9888C29.7502 56.9888 29.6778 56.4819 29.4173 56.3717C19.097 50.6634 15.9416 47.1591 11.2084 29.241C12.9164 30.1446 23.8301 33.8473 25.1473 30.8499C24.9447 31.2466 7.98062 18.2212 6.53317 18.4196C4.362 18.64 13.3072 48.6578 14.4218 51.6772C14.6244 52.3825 13.7704 49.9802 14.4218 51.6772Z" fill="white"/>
<path d="M95.0442 132.166C92.2217 133.774 76.4301 99.8336 76.5024 94.2355C76.763 83.4141 93.0033 68.3832 97.5483 61.1763C98.1273 60.1845 98.6628 60.493 98.6628 61.2865C98.7931 72.196 97.0851 84.3177 96.6219 95.0289C96.1588 106.644 97.8088 130.667 95.0442 132.166Z" fill="white"/>
<path d="M99.3148 126.37C98.1279 127.979 98.7937 67.5022 102.412 69.4857C103.527 70.1028 101.877 122.381 99.3148 126.37Z" fill="white"/>
<path d="M325.891 46.1499C324.803 45.4273 323.621 45.097 322.436 45.185C321.251 45.2729 320.095 45.7766 319.059 46.6568C317.814 47.4503 316.555 48.2657 315.252 49.0592L313.53 50.2713C313.399 50.2713 313.341 50.2713 313.269 50.073C313.197 49.8746 313.081 49.4558 312.951 49.1693C312.826 48.5955 312.645 48.0532 312.415 47.5605C311.934 46.6809 311.356 45.9352 310.707 45.3565C310.318 45.1986 309.921 45.0953 309.52 45.048C307.349 45.048 305.583 48.3539 305.583 52.6516V92.3227C305.507 93.5345 305.643 94.7553 305.976 95.862C306.308 96.9687 306.827 97.9221 307.479 98.626C308.175 99.3762 309.001 99.7978 309.853 99.8382C310.495 99.8352 311.123 99.5482 311.66 99.0122C312.197 98.4761 312.62 97.7142 312.878 96.8188C313.372 95.1222 313.595 93.272 313.53 91.4191V84.8072C313.53 78.7904 313.53 72.5753 313.66 66.3822C313.588 63.5759 314.131 60.8129 315.202 58.5271C316.274 56.2413 317.814 54.5622 319.58 53.7536C319.963 53.5474 320.362 53.4142 320.767 53.3569C322.605 53.3569 323.864 55.5608 324.313 58.9549C324.583 61.0679 324.719 63.2157 324.718 65.3684C324.718 70.4816 324.718 75.4845 324.718 80.3993V89.5016C324.718 90.802 324.718 92.2125 324.849 93.5129C325.124 97.3037 326.557 99.9263 328.409 99.9263C329.077 99.8375 329.724 99.5292 330.306 99.0227C330.934 98.3348 331.435 97.4111 331.759 96.3414C332.084 95.2716 332.221 94.0923 332.158 92.9178C332.158 84.102 332.158 75.2862 332.158 66.6687V64.9717C332.159 63.3658 332.096 61.7614 331.97 60.1671C331.824 57.1993 331.177 54.3393 330.091 51.8642C329.006 49.3891 327.519 47.3828 325.775 46.0397M363.134 100.72L363.857 98.4056C365.957 91.4114 367.161 83.8712 367.404 76.1898C367.534 69.8865 367.404 63.3628 367.404 57.1697V53.0483C367.382 51.6546 367.226 50.2733 366.94 48.949C366.747 47.7465 366.258 46.7031 365.573 46.0345C364.889 45.3659 364.062 45.1231 363.264 45.3565C360.962 45.5549 359.718 47.9572 359.718 52.3651V57.7648C359.718 62.4592 359.718 67.374 359.515 72.1786C359.475 75.1474 359.232 78.1019 358.791 80.9944C358.14 85.9974 355.896 89.4135 353.132 89.4135C352.548 89.3919 351.97 89.2205 351.424 88.9066C348.659 87.4079 347.081 83.7934 346.502 78.4819C346.066 72.9378 345.998 67.3408 346.3 61.7759V59.572C346.3 58.5802 346.3 57.5664 346.3 56.5746C346.372 54.3707 346.445 52.1667 346.445 49.9628C346.474 48.9985 346.329 48.0403 346.025 47.193C345.722 46.3457 345.271 45.6418 344.722 45.1582C344.089 44.5826 343.36 44.2993 342.623 44.3427H342.16C341.391 44.3909 340.656 44.8328 340.073 45.5968C339.49 46.3607 339.093 47.4021 338.947 48.5522C338.475 50.6903 338.188 52.913 338.093 55.1641C337.948 59.7703 338.093 64.4868 338.093 68.3878C338.078 73.4519 338.496 78.4973 339.338 83.3967C339.957 88.3231 341.566 92.8355 343.94 96.3118C346.633 100.125 349.47 100.918 352.35 98.5158C352.868 98.1363 353.354 97.6627 353.798 97.1053C354.058 96.7967 354.449 96.5102 354.709 96.2017H354.912C355.22 95.7793 355.613 95.5303 356.027 95.4964C356.157 95.4711 356.288 95.5034 356.406 95.5894C356.525 95.6754 356.624 95.8115 356.692 95.9813C356.794 96.7193 356.749 97.4866 356.562 98.1852L356.49 98.3836C356.218 99.8949 355.865 101.369 355.433 102.791C354.199 106.916 353.295 111.253 352.741 115.707C352.232 118.984 352.119 122.374 352.408 125.713C353.132 131.134 354.984 134.418 357.937 135.52C359.192 135.936 360.476 136.107 361.759 136.027H362.859C364.023 136.063 365.161 135.496 366.086 134.418C367.722 132.523 368.127 127.52 366.868 124.126C366.608 123.403 366.241 122.782 365.796 122.312C365.352 121.842 364.842 121.535 364.306 121.415L364.046 121.217C363.243 121.016 362.516 120.373 362.005 119.409C361.272 117.925 360.798 116.183 360.626 114.345C360.454 112.507 360.59 110.633 361.02 108.896C361.744 106.097 362.468 103.298 363.322 100.588M438.936 63.8477C438.936 59.9246 438.936 55.7371 438.936 51.7259C438.936 47.7147 437.416 45.1141 435.187 45.1141H435.057C432.886 45.1141 431.569 47.2078 431.178 51.219C431.039 52.7453 430.972 54.2845 430.975 55.8253V57.1697C430.975 63.3628 430.975 69.7763 430.975 76.0796C430.975 83.2865 428.674 89.4135 425.186 91.0004C424.653 91.2802 424.098 91.4507 423.535 91.5072C423.072 91.5001 422.62 91.288 422.235 90.8967C421.849 90.5053 421.547 89.9517 421.364 89.3033C420.923 88.0948 420.634 86.772 420.51 85.4023C420.25 82.4049 420.062 78.5921 419.989 74.7793C419.989 70.3714 419.989 65.677 419.989 61.5556V52.2549C420.038 51.2587 419.933 50.2589 419.682 49.3362C419.43 48.4135 419.04 47.5938 418.542 46.9434C417.899 46.1486 417.132 45.6196 416.316 45.4073C415.499 45.195 414.661 45.3065 413.881 45.7312C412.173 46.745 411.782 50.1391 411.782 52.7398C411.782 61.3572 411.782 70.6579 411.782 81.3911C411.784 85.7538 412.657 90.0124 414.286 93.601C416.255 97.8105 418.296 99.706 420.525 99.706H421.118C422.804 99.405 424.46 98.8059 426.054 97.9208C427.163 97.3022 428.241 96.5657 429.282 95.7168L430.657 94.5046H430.787L430.99 94.703C431.081 94.9183 431.144 95.1575 431.178 95.4083C431.396 95.8727 431.576 96.376 431.714 96.9069C432.032 97.8273 432.517 98.59 433.11 99.1055C433.704 99.621 434.382 99.8677 435.065 99.8168C435.747 99.7659 436.406 99.4194 436.963 98.818C437.521 98.2167 437.954 97.3855 438.213 96.4221C438.783 94.4712 439.032 92.3375 438.936 90.2069V63.9799V63.8477ZM289.473 44.6072C288.407 44.3921 287.335 44.2597 286.26 44.2104C284.158 44.1336 282.092 45.0414 280.34 46.8111C278.559 48.7286 276.851 50.6239 275.013 52.8279C274.551 53.4311 274.151 54.137 273.826 54.9216C273.525 55.5811 273.357 56.3609 273.344 57.1641C273.331 57.9674 273.474 58.7587 273.754 59.4398C274.217 60.6299 274.883 60.6299 275.737 59.9246C276.834 58.9355 277.888 57.8385 278.892 56.6407C279.412 56.1106 279.897 55.5054 280.34 54.8335C281.006 54.1282 281.585 53.3348 282.178 52.6296C283.126 51.5272 284.285 50.9308 285.478 50.9325C285.765 50.9152 286.052 50.9522 286.332 51.0427C287.272 51.2989 288.118 52.0704 288.71 53.2114C289.302 54.3524 289.599 55.784 289.545 57.2358C289.583 58.2709 289.583 59.3083 289.545 60.3434V62.5473C289.578 62.8283 289.572 63.1166 289.527 63.3937C289.482 63.6707 289.399 63.9304 289.285 64.1562C289.044 64.4616 288.744 64.6395 288.431 64.6631H287.172H284.089C283.466 64.6735 282.845 64.7768 282.236 64.9717C279.758 66.0862 277.488 68.0718 275.607 70.7681C273.362 73.6042 271.732 77.4069 270.931 81.6776C270.515 83.824 270.473 86.0983 270.807 88.2774C271.142 90.4565 271.843 92.4656 272.842 94.1079C274.308 96.3619 276.048 98.1587 277.966 99.3974C279.017 100.157 280.177 100.5 281.338 100.396C282.499 100.292 283.624 99.7439 284.61 98.8023L287.765 95.8049L289.343 94.3063H289.473L289.676 94.5046V94.703C289.772 94.8405 289.843 95.0159 289.878 95.2099C290.805 98.4056 291.717 99.6178 293.425 99.6178C293.999 99.603 294.572 99.4996 295.133 99.3092C295.599 99.1211 296.018 98.7246 296.335 98.1708C296.653 97.6169 296.854 96.9311 296.913 96.2017C297.133 94.7542 297.264 93.2784 297.304 91.7938V59.5059C297.336 55.6984 296.421 52.0135 294.742 49.1914C293.326 46.779 291.391 45.2158 289.285 44.7835M289.285 83.8375C288.743 85.7791 287.875 87.4682 286.766 88.7338C285.658 89.9994 284.35 90.7965 282.974 91.0444C282.482 91.0064 281.996 90.8731 281.527 90.6477C280.27 89.7254 279.27 88.1525 278.705 86.2103C278.14 84.2681 278.047 82.0834 278.444 80.0467C278.646 78.866 279.082 77.8092 279.694 77.0203C280.305 76.2314 281.061 75.749 281.86 75.6388C283.043 75.4791 284.232 75.4129 285.42 75.4404H288.315C288.59 75.4404 288.909 75.4404 289.169 75.4404C289.303 75.4763 289.44 75.4763 289.574 75.4404C289.609 75.4372 289.644 75.4453 289.677 75.4641C289.709 75.4829 289.739 75.512 289.763 75.5495C289.788 75.587 289.807 75.632 289.819 75.6816C289.832 75.7312 289.837 75.7842 289.835 75.8372V78.0411C289.966 80.0017 289.808 81.9821 289.372 83.8375M393.255 45.5989C391.464 45.6102 389.703 46.2994 388.131 47.6045C387.407 48.1996 386.814 48.9049 386.22 49.3897L385.569 50.095C385.362 50.2466 385.133 50.3149 384.903 50.2934C384.708 50.2475 384.525 50.1202 384.374 49.9258C384.223 49.7313 384.111 49.4771 384.049 49.1914C383.706 47.9987 383.146 46.9797 382.436 46.2537C381.726 45.5277 380.895 45.1248 380.04 45.092C378.949 45.1251 377.911 45.8052 377.145 46.9874C376.143 48.9119 375.671 51.3535 375.828 53.7976V73.3247C375.828 91.2428 375.828 109.183 375.828 127.189C375.794 128.669 375.882 130.15 376.088 131.597C376.147 133.135 376.574 134.586 377.29 135.675C378.005 136.763 378.958 137.414 379.967 137.504H380.228C381.159 137.502 382.059 136.999 382.769 136.083C383.479 135.167 383.953 133.898 384.107 132.501C384.292 130.745 384.379 128.968 384.368 127.189C384.368 120.181 384.368 113.26 384.368 106.362V98.6481C384.379 98.5623 384.404 98.4818 384.439 98.4127C384.474 98.3436 384.52 98.2878 384.571 98.2495C384.623 98.2112 384.68 98.1914 384.737 98.1917C384.795 98.1921 384.852 98.2125 384.903 98.2513C385.033 98.2513 385.091 98.4497 385.164 98.4497V98.5599C386.246 99.7497 387.511 100.494 388.837 100.722C390.163 100.95 391.505 100.653 392.734 99.8602C395.699 98.251 398.362 95.5655 400.492 92.0362C402.338 89.2953 403.693 85.8813 404.429 82.1184C405.749 74.684 405.613 66.8244 404.038 59.5059C402.2 50.8884 397.988 45.4887 393.125 45.4887M397.467 72.6194C397.591 77.3549 397.099 82.081 396.02 86.5263C395.564 88.4047 394.764 90.0447 393.715 91.2517C392.665 92.4588 391.411 93.1824 390.1 93.3365C389.54 93.3244 388.986 93.1602 388.464 92.8517C386.814 91.7497 385.699 89.4355 384.845 85.6227C383.733 80.052 383.306 74.2166 383.586 68.4099C383.586 67.2197 383.789 66.2059 383.919 65.0157V64.9055C384.096 62.1226 384.836 59.4919 386.036 57.376C387.236 55.2602 388.838 53.7635 390.621 53.0924C390.904 53.0387 391.191 53.0387 391.475 53.0924C392.506 53.2171 393.49 53.8082 394.3 54.7899C395.11 55.7715 395.709 57.099 396.02 58.6022C397.039 62.4892 397.531 66.65 397.467 70.8342C397.539 71.2234 397.539 71.6351 397.467 72.0243V72.6194ZM221.081 44.7835C219.836 44.5851 218.78 44.3868 217.854 44.3868C215.754 44.3321 213.691 45.2381 211.933 46.9874C210.168 48.9049 208.517 50.8003 206.679 53.0042C206.201 53.6088 205.782 54.3138 205.434 55.098C205.167 55.781 205.025 56.5616 205.025 57.357C205.025 58.1525 205.167 58.9331 205.434 59.6161C205.956 60.8062 206.549 60.8062 207.403 60.1009C208.514 59.1435 209.569 58.045 210.558 56.817C211.094 56.1999 211.687 55.6049 212.151 55.0098C212.614 54.4148 213.323 53.5111 213.989 52.8059C214.922 51.6773 216.083 51.0773 217.275 51.1088C217.518 51.0908 217.762 51.1279 217.998 51.219C218.954 51.4627 219.82 52.2233 220.437 53.361C221.054 54.4987 221.38 55.9372 221.356 57.4121C221.356 58.5141 221.356 59.6161 221.356 60.6299V62.7237C221.381 63.3044 221.262 63.8781 221.023 64.3325C220.912 64.5021 220.778 64.6347 220.631 64.722C220.484 64.8092 220.327 64.8492 220.169 64.8394H218.852H215.957C215.339 64.8391 214.723 64.9425 214.119 65.148C211.609 66.238 209.306 68.2253 207.403 70.9444C205.182 73.8086 203.562 77.6016 202.742 81.8539C202.323 83.9999 202.279 86.2753 202.614 88.4552C202.949 90.6351 203.652 92.6443 204.653 94.2842C206.152 96.5275 207.915 98.3218 209.849 99.5737C210.898 100.331 212.055 100.673 213.214 100.569C214.373 100.465 215.495 99.9183 216.478 98.9786C217.477 97.9869 218.592 96.973 219.706 95.9813C220.169 95.4744 220.69 94.9895 221.154 94.4826H221.356L221.487 94.6809L221.617 94.8793C221.617 94.9895 221.617 95.1878 221.617 95.3862C222.601 98.5819 223.527 99.7941 225.235 99.7941C225.834 99.7681 226.429 99.6649 227.016 99.4855C227.474 99.2784 227.884 98.8757 228.197 98.325C228.51 97.7743 228.713 97.0986 228.782 96.378C228.99 94.9295 229.101 93.4527 229.115 91.9701C229.115 84.3444 229.115 76.851 229.115 69.4457V59.2193C229.154 55.3895 228.209 51.688 226.48 48.9049C225.064 46.4925 223.129 44.9293 221.023 44.497M221.023 83.551C220.496 85.5071 219.631 87.2096 218.52 88.4784C217.409 89.7471 216.094 90.5347 214.713 90.7579C214.196 90.7396 213.684 90.6059 213.193 90.3612C211.955 89.4055 210.973 87.8285 210.411 85.8969C209.849 83.9653 209.743 81.7975 210.11 79.7602C210.324 78.5692 210.773 77.5074 211.397 76.7189C212.021 75.9303 212.79 75.4532 213.598 75.3523C214.777 75.1888 215.961 75.1226 217.144 75.1539H220.039C220.372 75.1539 220.633 75.1539 220.893 75.1539C221.046 75.197 221.203 75.197 221.356 75.1539C221.487 75.1539 221.559 75.3523 221.559 75.5506V77.7546C221.663 79.7145 221.506 81.6862 221.096 83.551M191.901 77.0493C191.438 76.2559 191.047 75.4404 190.584 74.647C190.12 73.8536 189.86 73.3467 189.469 72.7516L189.064 72.0464C189.064 71.848 189.064 71.7378 189.064 71.6497C189.527 70.5477 189.99 69.4457 190.511 68.5421C191.568 66.3381 192.552 64.1342 193.536 61.9302C194.941 58.6143 196.023 55.0066 196.75 51.219C197.011 50.3411 197.076 49.3572 196.935 48.4178C196.793 47.4784 196.454 46.6354 195.968 46.0177C195.233 45.0472 194.305 44.4807 193.334 44.4088C192.832 44.438 192.343 44.6542 191.909 45.0385C191.475 45.4227 191.109 45.9633 190.844 46.6128C189.845 48.8167 188.861 51.219 187.949 53.6213L187.819 53.9078C186.965 56.1118 186.169 58.3157 185.315 60.5197C184.982 61.5335 184.591 62.5253 184.258 63.5171C184.23 63.5834 184.191 63.6381 184.146 63.6765C184.101 63.715 184.05 63.7359 183.998 63.7375C183.998 63.7375 183.868 63.7375 183.868 63.5171C183.46 62.8259 183.088 62.0891 182.753 61.3131C182.029 59.594 181.306 58.0954 180.582 56.4865C179.858 54.8776 179.134 52.6957 178.483 50.8884C178.078 49.6983 177.687 48.6845 177.296 47.3841C177.007 46.4529 176.551 45.6661 175.979 45.1158C175.407 44.5654 174.745 44.2743 174.068 44.2766H173.475C173.07 44.3425 172.68 44.5376 172.328 44.849C171.976 45.1604 171.672 45.5811 171.434 46.0838C171.174 46.815 171.022 47.6242 170.99 48.4543C170.957 49.2844 171.044 50.1153 171.246 50.8884C171.95 54.5236 173.062 57.946 174.531 61.0046C175.588 63.2085 176.63 65.2141 177.817 67.418C178.28 68.4098 178.801 69.3135 179.265 70.3053C179.265 70.5036 179.265 70.6138 179.265 70.724C179.165 70.9644 179.032 71.1678 178.874 71.319C178.744 71.7158 178.541 72.0243 178.411 72.421C177.893 73.3487 177.409 74.32 176.963 75.3303C175.646 77.9309 174.271 80.6197 173.012 83.3306C171.694 86.1146 170.714 89.2344 170.117 92.5431C169.581 95.3421 169.842 97.6563 171.029 98.7582C171.64 99.453 172.379 99.8384 173.142 99.8602C173.92 99.8228 174.677 99.4675 175.334 98.8316C175.991 98.1957 176.524 97.3026 176.876 96.2457L177.933 93.3365L178.324 92.1464C179.608 88.1004 181.298 84.3829 183.332 81.1266C184.316 79.4296 185.17 78.9227 186.227 81.1266C187.567 83.6714 188.8 86.3436 189.918 89.127C190.497 90.6477 191.032 92.2345 191.553 93.7332C191.853 94.8723 192.206 95.9771 192.61 97.0392C192.828 97.8591 193.2 98.5634 193.678 99.0649C194.157 99.5664 194.721 99.8429 195.302 99.8602C196.041 99.8358 196.763 99.5248 197.401 98.9566C197.7 98.6825 197.936 98.2758 198.078 97.7912C198.221 97.3066 198.262 96.7673 198.197 96.2457C197.905 92.6026 197.169 89.0745 196.026 85.8431C194.889 82.7173 193.498 79.822 191.886 77.2257M264.085 94.6369C264.026 93.905 264.026 93.1648 264.085 92.4329V59.3736L264.013 53.2687C264.101 51.2903 263.825 49.3135 263.216 47.5605C262.862 46.5985 262.348 45.7952 261.725 45.2305C261.103 44.6658 260.395 44.3597 259.67 44.3427C259.136 44.3779 258.606 44.5111 258.092 44.7394C256.457 45.8414 255.588 48.2437 255.588 52.1667V67.5944C255.651 69.7793 255.405 71.9592 254.865 73.9858C254.323 75.8218 253.507 77.4396 252.481 78.71C251.456 79.9805 250.25 80.8684 248.959 81.3029C248.153 81.5187 247.323 81.2705 246.63 80.6067C245.937 79.9428 245.431 78.9106 245.21 77.7105C244.587 75.2146 244.297 72.5549 244.356 69.8865V63.8917C244.356 61.2911 244.356 59.9687 244.284 54.3707C244.28 52.4119 244.105 50.4626 243.763 48.5743C243.556 47.341 243.091 46.2438 242.438 45.4486C241.785 44.6534 240.98 44.2033 240.144 44.1664C239.639 44.1311 239.137 44.2976 238.688 44.6495C238.238 45.0013 237.857 45.5262 237.582 46.172C236.928 47.832 236.606 49.747 236.656 51.6818C236.728 52.4789 236.728 53.2871 236.656 54.0842V54.2825C236.704 55.0153 236.704 55.7537 236.656 56.4865V61.0927C236.656 64.5088 236.656 67.9029 236.656 71.319C236.638 75.9005 237.559 80.3764 239.29 84.124C240.665 86.8349 242.504 90.0306 245.268 89.6339C248.385 89.265 251.381 87.6453 253.953 84.9395C254.371 84.4017 254.867 84.0238 255.4 83.8375C256.052 83.8375 256.052 84.8293 256.052 86.8349V94.6369C256.124 100.632 256.385 101.932 256.848 103.739C257.267 105.249 257.974 106.532 258.877 107.424C259.78 108.315 260.838 108.775 261.914 108.742C263.013 108.801 264.095 108.314 264.997 107.354C266.777 105.546 265.981 102.439 265.127 99.1329C264.658 97.6756 264.327 96.1249 264.143 94.5267" fill="white"/>
<path d="M280.064 144.225C280.122 146.214 279.712 148.168 278.906 149.735C278.682 150.204 278.385 150.579 278.04 150.825C277.696 151.072 277.317 151.182 276.937 151.146C276.317 151.099 275.713 150.83 275.174 150.358C274.636 149.887 274.178 149.228 273.84 148.435C273.394 147.132 273.146 145.693 273.116 144.225C273.048 143.069 273.19 141.905 273.527 140.864C273.864 139.822 274.383 138.941 275.027 138.319V139.817C275.027 141.03 275.881 141.426 276.214 141.426C276.46 141.46 276.708 141.419 276.944 141.306C277.179 141.193 277.398 141.011 277.588 140.77C277.777 140.528 277.934 140.232 278.048 139.899C278.162 139.565 278.233 139.2 278.254 138.826C278.861 139.403 279.352 140.221 279.676 141.192C280 142.163 280.144 143.249 280.093 144.335M270.091 144.931C270.089 146.493 270.245 148.047 270.554 149.537C270.939 151.285 271.686 152.795 272.683 153.84C273.68 154.886 274.874 155.41 276.083 155.333C277.393 155.41 278.692 154.929 279.832 153.945C280.958 152.731 281.863 151.101 282.461 149.208C283.058 147.314 283.329 145.22 283.248 143.123C283.381 140.863 282.936 138.611 282.006 136.838C281.075 135.064 279.732 133.905 278.254 133.602V133.095C278.254 131.795 277.458 131.597 277.068 131.597C276.594 131.551 276.125 131.77 275.75 132.212C275.374 132.654 275.117 133.289 275.027 133.999C273.532 134.714 272.237 136.165 271.343 138.124C270.45 140.083 270.009 142.439 270.091 144.82M253.793 138.407V146.429C253.793 148.831 253.662 151.234 253.662 153.636C253.671 153.867 253.711 154.093 253.779 154.3C253.848 154.507 253.943 154.69 254.06 154.839C254.176 154.988 254.312 155.099 254.457 155.165C254.603 155.231 254.756 155.25 254.907 155.223C255.631 155.223 256.688 154.54 256.688 153.019C256.796 151.46 256.84 149.892 256.818 148.325C257.177 147.546 257.574 146.81 258.005 146.121C258.396 146.319 258.859 146.628 259.452 146.826C259.452 147.024 259.915 148.126 260.234 148.831C260.676 149.903 261.159 150.933 261.681 151.917C262.205 153.296 263.038 154.341 264.027 154.859C265.017 155.377 266.096 155.334 267.066 154.738C267.379 154.59 267.655 154.3 267.857 153.906C268.059 153.512 268.177 153.033 268.195 152.534C268.201 152.306 268.176 152.078 268.121 151.865C268.067 151.653 267.984 151.459 267.878 151.298C267.772 151.136 267.645 151.01 267.505 150.927C267.365 150.844 267.216 150.806 267.066 150.815C266.705 150.861 266.352 151.003 266.024 151.234C264.764 151.234 263.722 147.928 262.738 145.724C262.117 144.425 261.27 143.417 260.292 142.815C261.272 141.222 262.331 139.748 263.462 138.407C263.462 138.605 263.317 138.715 263.317 138.914C263.339 139.339 263.47 139.733 263.681 140.013C263.892 140.294 264.166 140.437 264.446 140.412C264.877 140.414 265.299 140.226 265.661 139.87C266.024 139.514 266.31 139.006 266.487 138.407C266.487 137.812 266.617 137.305 266.617 136.908C266.627 136.47 266.578 136.033 266.472 135.625C266.367 135.217 266.207 134.846 266.004 134.536C265.8 134.226 265.556 133.983 265.288 133.822C265.021 133.662 264.734 133.587 264.446 133.602C263.129 133.602 262.014 135.299 261.16 136.203C259.661 138.12 258.254 140.197 256.948 142.418V136.203C256.948 133.205 256.948 130.296 257.078 127.387C257.078 127.001 256.994 126.626 256.84 126.319C256.685 126.012 256.469 125.791 256.224 125.69C255.842 125.492 255.441 125.387 255.037 125.381C254.516 125.381 254.314 125.492 253.923 125.492C253.472 125.535 253.046 125.82 252.72 126.296C252.394 126.772 252.19 127.408 252.143 128.092C252.164 128.498 252.285 128.876 252.48 129.154C252.676 129.431 252.932 129.587 253.199 129.591H253.923L253.793 138.407ZM247.409 151.234V146.429C247.409 142.815 247.67 139.112 247.67 135.409C247.67 135.191 247.641 134.974 247.584 134.773C247.528 134.572 247.445 134.39 247.34 134.239C247.236 134.089 247.113 133.972 246.978 133.897C246.843 133.821 246.699 133.789 246.555 133.801C246.212 133.786 245.871 133.896 245.562 134.122C245.252 134.348 244.982 134.684 244.775 135.101C242.749 139.112 240.766 143.123 238.725 147.223C238.869 144.622 239 141.713 239 138.715C239.13 138.605 239.13 137.812 239.13 137.106C239.163 136.64 239.132 136.169 239.04 135.721C238.948 135.274 238.796 134.86 238.595 134.506C238.09 133.924 237.455 133.67 236.829 133.801C236.235 133.801 235.569 133.999 235.381 133.999H235.251C234.8 134.034 234.371 134.303 234.035 134.759C233.698 135.216 233.473 135.834 233.398 136.511C233.401 136.726 233.434 136.937 233.493 137.132C233.553 137.326 233.639 137.499 233.745 137.64C233.852 137.781 233.976 137.887 234.111 137.951C234.245 138.014 234.387 138.035 234.527 138.01H235.975V139.112C235.975 140.214 235.844 141.316 235.844 142.22C235.844 144.622 235.569 147.421 235.569 149.933C235.524 151.313 235.617 152.695 235.844 154.033C235.844 154.936 236.423 155.223 236.959 155.223C237.357 155.242 237.75 155.083 238.09 154.766C238.429 154.448 238.7 153.987 238.87 153.438C240.635 149.933 242.474 146.121 244.254 142.418V151.234C244.384 154.936 245.499 155.642 247.279 155.642H248.133C248.592 155.566 249.021 155.262 249.354 154.775C249.686 154.288 249.904 153.648 249.971 152.953C249.97 152.739 249.94 152.528 249.881 152.334C249.823 152.14 249.739 151.966 249.634 151.825C249.529 151.683 249.405 151.577 249.271 151.513C249.137 151.45 248.996 151.429 248.857 151.454H248.003C247.839 151.46 247.678 151.391 247.54 151.256L247.409 151.234ZM221.761 150.529V149.933C221.748 146.771 222.061 143.626 222.687 140.611C222.824 139.902 223.111 139.282 223.504 138.847C223.897 138.413 224.373 138.188 224.858 138.208C225.559 138.225 226.229 138.65 226.73 139.396C227.231 140.143 227.525 141.153 227.55 142.22C227.564 142.533 227.518 142.847 227.42 143.123C226.827 147.223 224.656 149.625 221.761 150.529ZM218.605 150.33C218.64 154.534 218.926 158.724 219.459 162.849C219.531 163.245 219.686 163.594 219.9 163.845C220.114 164.095 220.376 164.233 220.646 164.237C221.142 164.239 221.622 163.968 221.997 163.474C222.372 162.98 222.617 162.296 222.687 161.548V161.13C222.327 158.893 222.085 156.615 221.963 154.319C223.772 153.876 225.482 152.759 226.939 151.067C228.396 149.375 229.556 147.161 230.315 144.622C230.562 143.381 230.717 142.102 230.778 140.809C230.816 139.874 230.723 138.937 230.506 138.06C230.288 137.183 229.95 136.387 229.515 135.724C229.079 135.062 228.557 134.547 227.981 134.216C227.405 133.884 226.79 133.743 226.175 133.801C220.053 133.801 218.605 142.418 218.605 150.33ZM206.186 146.121C207.215 144.652 208.532 143.739 209.935 143.52C210.195 144.901 210.394 146.307 210.529 147.73C209.976 148.173 209.444 148.674 208.936 149.228C208.328 149.739 207.694 150.174 207.04 150.529C206.381 150.888 205.696 151.125 204.999 151.234H204.869V150.727C205.117 149.08 205.563 147.518 206.186 146.121ZM208.936 140.214C207.406 140.866 205.944 141.845 204.594 143.123C202.993 145.318 202.004 148.361 201.829 151.631C201.829 154.319 203.016 155.223 204.391 155.223C205.331 155.232 206.266 155.001 207.156 154.54C208.536 153.883 209.858 152.973 211.093 151.829C211.109 152.516 211.202 153.195 211.368 153.834C211.629 155.421 212.946 155.135 213.669 155.135C214.136 155.11 214.582 154.836 214.929 154.361C215.276 153.885 215.501 153.238 215.566 152.534C215.566 151.234 214.581 151.035 214.118 151.035C213.63 146.74 212.904 142.515 211.947 138.407C211.73 137.057 211.227 135.855 210.515 134.986C209.803 134.117 208.922 133.63 208.01 133.602C207.335 133.616 206.668 133.818 206.041 134.197C205.712 134.314 205.416 134.593 205.202 134.992C204.987 135.39 204.865 135.886 204.855 136.401C204.855 136.881 204.98 137.34 205.202 137.679C205.425 138.018 205.727 138.208 206.041 138.208C206.422 138.147 206.797 138.014 207.156 137.812C207.749 137.812 208.343 138.605 208.922 140.214M201.685 152.534C201.687 152.3 201.657 152.067 201.598 151.851C201.538 151.635 201.45 151.44 201.338 151.279C201.227 151.117 201.095 150.993 200.95 150.913C200.805 150.833 200.651 150.8 200.498 150.815C200.035 150.815 199.513 151.035 199.05 151.035H198.92C198.327 148.831 195.765 136.71 192.537 122.582C192.47 122.264 192.338 121.987 192.162 121.789C191.985 121.591 191.772 121.483 191.553 121.48C191.035 121.489 190.539 121.793 190.161 122.331C189.783 122.87 189.551 123.604 189.512 124.39V124.985C189.666 125.404 189.801 125.838 189.917 126.285V126.483C188.469 133.095 187.746 139.112 185.893 145.217C184.898 139.81 183.645 134.522 182.144 129.393C180.972 125.69 179.843 121.084 177.092 121.084C176.226 121.255 175.381 121.626 174.588 122.186C174.27 122.434 174 122.805 173.804 123.261C173.609 123.717 173.495 124.243 173.474 124.786C173.481 125.233 173.601 125.658 173.808 125.974C174.016 126.29 174.295 126.472 174.588 126.483C174.883 126.404 175.169 126.271 175.442 126.087C175.665 125.804 175.95 125.662 176.239 125.69C176.89 125.69 177.353 126.594 178.207 128.291C178.207 128.343 178.193 128.394 178.169 128.431C178.144 128.468 178.111 128.489 178.077 128.489C175.906 136.401 175.312 146.429 171.824 152.336C171.563 152.931 171.303 153.217 171.303 153.834C171.303 155.135 172.287 155.223 172.62 155.223C172.922 155.246 173.223 155.157 173.497 154.966C173.772 154.774 174.012 154.484 174.198 154.121C177.614 148.523 178.41 140.412 179.987 133.205C180.508 135.101 180.972 136.908 181.232 138.01C182.289 143.013 182.68 146.628 183.997 151.234C183.988 151.392 184 151.552 184.032 151.704C184.065 151.855 184.116 151.995 184.185 152.115C184.315 152.534 184.851 152.732 185.169 152.732C185.468 152.724 185.762 152.622 186.034 152.432C186.305 152.242 186.548 151.97 186.747 151.631C186.874 151.454 186.985 151.254 187.08 151.035C188.937 145.282 190.434 139.276 191.553 133.095C193.13 140.412 194.317 147.024 196.025 154.319C196.416 155.62 197.473 155.223 197.733 155.223H199.774C200.252 155.201 200.708 154.916 201.059 154.422C201.41 153.928 201.633 153.258 201.685 152.534Z" fill="white"/>
</svg>
